<svg width="750" height="392" viewBox="0 0 750 392" fill="none" xmlns="http://www.w3.org/2000/svg">
<path d="M334.539 197.45C333.339 197.45 332.389 197.117 331.689 196.45C331.022 195.783 330.689 194.817 330.689 193.55V190.7H319.489C318.256 190.7 317.272 190.433 316.539 189.9C315.806 189.333 315.439 188.483 315.439 187.35C315.439 186.683 315.589 186 315.889 185.3C316.189 184.6 316.722 183.733 317.489 182.7L330.439 163.85C331.006 163.017 331.639 162.383 332.339 161.95C333.039 161.517 333.839 161.3 334.739 161.3C335.806 161.3 336.656 161.633 337.289 162.3C337.956 162.933 338.289 163.9 338.289 165.2V184.6H340.139C341.239 184.6 342.072 184.867 342.639 185.4C343.206 185.9 343.489 186.65 343.489 187.65C343.489 188.617 343.206 189.367 342.639 189.9C342.106 190.433 341.272 190.7 340.139 190.7H338.289V193.55C338.289 194.817 337.956 195.783 337.289 196.45C336.656 197.117 335.739 197.45 334.539 197.45ZM330.689 184.6V170.85H332.139L321.489 186.5V184.6H330.689ZM359.02 197.55C354.753 197.55 351.486 195.967 349.22 192.8C346.986 189.6 345.87 185.083 345.87 179.25C345.87 175.35 346.37 172.067 347.37 169.4C348.403 166.7 349.886 164.667 351.82 163.3C353.786 161.9 356.186 161.2 359.02 161.2C363.32 161.2 366.586 162.75 368.82 165.85C371.053 168.917 372.17 173.383 372.17 179.25C372.17 183.15 371.653 186.467 370.62 189.2C369.62 191.9 368.153 193.967 366.22 195.4C364.286 196.833 361.886 197.55 359.02 197.55ZM359.02 191.25C360.953 191.25 362.386 190.3 363.32 188.4C364.253 186.467 364.72 183.417 364.72 179.25C364.72 175.083 364.253 172.083 363.32 170.25C362.386 168.417 360.953 167.5 359.02 167.5C357.086 167.5 355.653 168.417 354.72 170.25C353.786 172.083 353.32 175.083 353.32 179.25C353.32 183.417 353.786 186.467 354.72 188.4C355.653 190.3 357.086 191.25 359.02 191.25ZM389 197.55C384.733 197.55 381.467 195.967 379.2 192.8C376.967 189.6 375.85 185.083 375.85 179.25C375.85 175.35 376.35 172.067 377.35 169.4C378.383 166.7 379.867 164.667 381.8 163.3C383.767 161.9 386.167 161.2 389 161.2C393.3 161.2 396.567 162.75 398.8 165.85C401.033 168.917 402.15 173.383 402.15 179.25C402.15 183.15 401.633 186.467 400.6 189.2C399.6 191.9 398.133 193.967 396.2 195.4C394.267 196.833 391.867 197.55 389 197.55ZM389 191.25C390.933 191.25 392.367 190.3 393.3 188.4C394.233 186.467 394.7 183.417 394.7 179.25C394.7 175.083 394.233 172.083 393.3 170.25C392.367 168.417 390.933 167.5 389 167.5C387.067 167.5 385.633 168.417 384.7 170.25C383.767 172.083 383.3 175.083 383.3 179.25C383.3 183.417 383.767 186.467 384.7 188.4C385.633 190.3 387.067 191.25 389 191.25ZM418.98 195.45C418.114 195.45 417.447 195.217 416.98 194.75C416.514 194.25 416.28 193.567 416.28 192.7V185.25H408.98C408.147 185.25 407.497 185.033 407.03 184.6C406.564 184.133 406.33 183.483 406.33 182.65C406.33 181.817 406.564 181.183 407.03 180.75C407.497 180.283 408.147 180.05 408.98 180.05H416.28V172.9C416.28 172 416.514 171.317 416.98 170.85C417.447 170.383 418.13 170.15 419.03 170.15C419.897 170.15 420.547 170.383 420.98 170.85C421.447 171.317 421.68 172 421.68 172.9V180.05H428.98C429.847 180.05 430.497 180.283 430.93 180.75C431.397 181.183 431.63 181.817 431.63 182.65C431.63 183.483 431.397 184.133 430.93 184.6C430.497 185.033 429.847 185.25 428.98 185.25H421.68V192.7C421.68 193.567 421.447 194.25 420.98 194.75C420.547 195.217 419.88 195.45 418.98 195.45Z" fill="white"/>
<path d="M223.799 233.216C223.191 233.216 222.727 233.048 222.407 232.712C222.087 232.376 221.927 231.904 221.927 231.296V217.976C221.927 217.352 222.087 216.88 222.407 216.56C222.743 216.24 223.215 216.08 223.823 216.08H229.655C231.543 216.08 232.999 216.56 234.023 217.52C235.047 218.464 235.559 219.784 235.559 221.48C235.559 223.176 235.047 224.504 234.023 225.464C232.999 226.424 231.543 226.904 229.655 226.904H225.647V231.296C225.647 231.904 225.487 232.376 225.167 232.712C224.863 233.048 224.407 233.216 223.799 233.216ZM225.647 224.024H229.031C229.991 224.024 230.719 223.808 231.215 223.376C231.727 222.944 231.983 222.312 231.983 221.48C231.983 220.648 231.727 220.024 231.215 219.608C230.719 219.192 229.991 218.984 229.031 218.984H225.647V224.024ZM243.419 233.264C242.027 233.264 240.827 233.016 239.819 232.52C238.827 232.008 238.059 231.296 237.515 230.384C236.987 229.456 236.723 228.368 236.723 227.12C236.723 225.904 236.979 224.84 237.491 223.928C238.003 223 238.715 222.28 239.627 221.768C240.555 221.24 241.603 220.976 242.771 220.976C243.619 220.976 244.387 221.12 245.075 221.408C245.763 221.68 246.355 222.08 246.851 222.608C247.347 223.12 247.723 223.752 247.979 224.504C248.235 225.24 248.363 226.064 248.363 226.976C248.363 227.28 248.267 227.512 248.075 227.672C247.883 227.816 247.603 227.888 247.235 227.888H239.699V226.016H245.747L245.363 226.352C245.363 225.696 245.267 225.152 245.075 224.72C244.883 224.272 244.603 223.936 244.235 223.712C243.883 223.488 243.443 223.376 242.915 223.376C242.323 223.376 241.819 223.512 241.403 223.784C240.987 224.056 240.667 224.448 240.443 224.96C240.219 225.472 240.107 226.088 240.107 226.808V227C240.107 228.216 240.387 229.112 240.947 229.688C241.523 230.264 242.371 230.552 243.491 230.552C243.875 230.552 244.315 230.504 244.811 230.408C245.307 230.312 245.771 230.16 246.203 229.952C246.571 229.776 246.899 229.72 247.187 229.784C247.475 229.832 247.699 229.96 247.859 230.168C248.019 230.376 248.107 230.616 248.123 230.888C248.155 231.16 248.099 231.432 247.955 231.704C247.811 231.96 247.571 232.176 247.235 232.352C246.691 232.656 246.075 232.88 245.387 233.024C244.715 233.184 244.059 233.264 243.419 233.264ZM254.83 233.264C253.966 233.264 253.19 233.096 252.502 232.76C251.814 232.424 251.278 231.968 250.894 231.392C250.51 230.816 250.318 230.168 250.318 229.448C250.318 228.584 250.542 227.904 250.99 227.408C251.438 226.896 252.166 226.536 253.174 226.328C254.182 226.104 255.518 225.992 257.182 225.992H258.454V227.864H257.206C256.39 227.864 255.726 227.912 255.214 228.008C254.718 228.088 254.358 228.232 254.134 228.44C253.926 228.648 253.822 228.936 253.822 229.304C253.822 229.752 253.974 230.12 254.278 230.408C254.598 230.696 255.054 230.84 255.646 230.84C256.11 230.84 256.518 230.736 256.87 230.528C257.238 230.304 257.526 230.008 257.734 229.64C257.942 229.256 258.046 228.824 258.046 228.344V225.584C258.046 224.88 257.886 224.384 257.566 224.096C257.246 223.792 256.702 223.64 255.934 223.64C255.502 223.64 255.03 223.696 254.518 223.808C254.022 223.904 253.47 224.072 252.862 224.312C252.51 224.472 252.198 224.512 251.926 224.432C251.654 224.336 251.446 224.176 251.302 223.952C251.158 223.712 251.086 223.456 251.086 223.184C251.086 222.896 251.166 222.624 251.326 222.368C251.486 222.096 251.75 221.896 252.118 221.768C252.87 221.464 253.574 221.256 254.23 221.144C254.902 221.032 255.518 220.976 256.078 220.976C257.31 220.976 258.318 221.16 259.102 221.528C259.902 221.88 260.502 222.432 260.902 223.184C261.302 223.92 261.502 224.872 261.502 226.04V231.368C261.502 231.96 261.358 232.416 261.07 232.736C260.782 233.056 260.366 233.216 259.822 233.216C259.278 233.216 258.854 233.056 258.55 232.736C258.262 232.416 258.118 231.96 258.118 231.368V230.48L258.286 230.624C258.19 231.168 257.982 231.64 257.662 232.04C257.358 232.424 256.966 232.728 256.486 232.952C256.006 233.16 255.454 233.264 254.83 233.264ZM274.276 233.216C273.684 233.216 273.228 233.056 272.908 232.736C272.604 232.416 272.452 231.96 272.452 231.368V224.024H269.38V225.344C269.38 226.368 269.308 227.296 269.164 228.128C269.02 228.96 268.804 229.696 268.516 230.336C268.228 230.976 267.86 231.52 267.412 231.968C266.964 232.4 266.428 232.744 265.804 233C265.388 233.176 265.012 233.224 264.676 233.144C264.34 233.064 264.06 232.912 263.836 232.688C263.628 232.464 263.492 232.2 263.428 231.896C263.38 231.576 263.42 231.264 263.548 230.96C263.692 230.64 263.948 230.368 264.316 230.144C264.668 229.952 264.956 229.704 265.18 229.4C265.404 229.096 265.58 228.736 265.708 228.32C265.836 227.904 265.924 227.448 265.972 226.952C266.036 226.44 266.068 225.864 266.068 225.224V223.256C266.068 222.6 266.236 222.096 266.572 221.744C266.924 221.392 267.428 221.216 268.084 221.216H274.06C274.716 221.216 275.212 221.392 275.548 221.744C275.9 222.096 276.076 222.6 276.076 223.256V231.368C276.076 231.96 275.916 232.416 275.596 232.736C275.292 233.056 274.852 233.216 274.276 233.216ZM280.932 233.216C280.564 233.216 280.252 233.144 279.996 233C279.74 232.856 279.548 232.648 279.42 232.376C279.308 232.088 279.252 231.72 279.252 231.272V222.752C279.252 222.192 279.396 221.768 279.684 221.48C279.972 221.176 280.372 221.024 280.884 221.024C281.412 221.024 281.812 221.176 282.084 221.48C282.372 221.768 282.516 222.192 282.516 222.752V229.208H281.868L287.172 222.176C287.364 221.92 287.612 221.664 287.916 221.408C288.22 221.152 288.652 221.024 289.212 221.024C289.58 221.024 289.884 221.096 290.124 221.24C290.38 221.368 290.564 221.576 290.676 221.864C290.804 222.136 290.868 222.496 290.868 222.944V231.488C290.868 232.032 290.724 232.456 290.436 232.76C290.164 233.064 289.772 233.216 289.26 233.216C288.716 233.216 288.3 233.064 288.012 232.76C287.74 232.456 287.604 232.032 287.604 231.488V225.008H288.276L282.948 232.04C282.756 232.312 282.508 232.576 282.204 232.832C281.916 233.088 281.492 233.216 280.932 233.216ZM298.649 233.264C297.865 233.264 297.097 233.192 296.345 233.048C295.593 232.92 294.905 232.728 294.281 232.472C293.929 232.328 293.665 232.136 293.489 231.896C293.329 231.656 293.241 231.4 293.225 231.128C293.225 230.856 293.297 230.616 293.441 230.408C293.601 230.2 293.817 230.064 294.089 230C294.377 229.92 294.721 229.952 295.121 230.096C295.633 230.304 296.193 230.464 296.801 230.576C297.425 230.672 298.017 230.72 298.577 230.72C299.489 230.72 300.145 230.624 300.545 230.432C300.961 230.224 301.169 229.904 301.169 229.472C301.169 229.104 301.025 228.824 300.737 228.632C300.465 228.424 300.057 228.32 299.513 228.32H297.329C296.897 228.32 296.561 228.208 296.321 227.984C296.081 227.744 295.961 227.432 295.961 227.048C295.961 226.648 296.081 226.344 296.321 226.136C296.561 225.912 296.897 225.8 297.329 225.8H299.201C299.681 225.8 300.049 225.712 300.305 225.536C300.577 225.344 300.713 225.072 300.713 224.72C300.713 224.336 300.537 224.04 300.185 223.832C299.849 223.624 299.209 223.52 298.265 223.52C297.753 223.52 297.249 223.568 296.753 223.664C296.273 223.744 295.801 223.872 295.337 224.048C294.857 224.208 294.457 224.216 294.137 224.072C293.817 223.928 293.593 223.704 293.465 223.4C293.353 223.096 293.361 222.792 293.489 222.488C293.633 222.168 293.921 221.928 294.353 221.768C295.041 221.496 295.761 221.296 296.513 221.168C297.281 221.04 298.081 220.976 298.913 220.976C300.545 220.976 301.793 221.272 302.657 221.864C303.537 222.44 303.977 223.256 303.977 224.312C303.977 225.032 303.729 225.648 303.233 226.16C302.753 226.656 302.097 226.968 301.265 227.096V226.736C302.289 226.816 303.073 227.112 303.617 227.624C304.161 228.12 304.433 228.808 304.433 229.688C304.433 230.776 303.929 231.648 302.921 232.304C301.913 232.944 300.489 233.264 298.649 233.264ZM312.502 233.264C311.238 233.264 310.134 233.016 309.19 232.52C308.262 232.024 307.542 231.312 307.03 230.384C306.518 229.456 306.262 228.36 306.262 227.096C306.262 226.152 306.406 225.304 306.694 224.552C306.982 223.8 307.398 223.16 307.942 222.632C308.502 222.088 309.166 221.68 309.934 221.408C310.702 221.12 311.558 220.976 312.502 220.976C313.766 220.976 314.862 221.224 315.79 221.72C316.734 222.216 317.462 222.92 317.974 223.832C318.502 224.744 318.766 225.832 318.766 227.096C318.766 228.056 318.614 228.912 318.31 229.664C318.022 230.416 317.606 231.064 317.062 231.608C316.518 232.152 315.854 232.568 315.07 232.856C314.302 233.128 313.446 233.264 312.502 233.264ZM312.502 230.552C313.03 230.552 313.486 230.424 313.87 230.168C314.254 229.912 314.558 229.536 314.782 229.04C315.006 228.528 315.118 227.88 315.118 227.096C315.118 225.928 314.878 225.072 314.398 224.528C313.918 223.968 313.286 223.688 312.502 223.688C311.99 223.688 311.534 223.808 311.134 224.048C310.75 224.288 310.446 224.664 310.222 225.176C310.014 225.672 309.91 226.312 309.91 227.096C309.91 228.264 310.15 229.136 310.63 229.712C311.11 230.272 311.734 230.552 312.502 230.552ZM323.074 233C322.514 233 322.082 232.848 321.778 232.544C321.474 232.24 321.322 231.8 321.322 231.224V222.992C321.322 222.416 321.474 221.976 321.778 221.672C322.082 221.368 322.514 221.216 323.074 221.216H328.018C329.09 221.216 329.946 221.344 330.586 221.6C331.242 221.84 331.714 222.192 332.002 222.656C332.29 223.104 332.434 223.656 332.434 224.312C332.434 225.032 332.186 225.648 331.69 226.16C331.194 226.656 330.538 226.968 329.722 227.096V226.736C330.794 226.816 331.586 227.12 332.098 227.648C332.61 228.176 332.866 228.856 332.866 229.688C332.866 230.696 332.466 231.504 331.666 232.112C330.882 232.704 329.73 233 328.21 233H323.074ZM324.658 230.84H327.85C328.426 230.84 328.858 230.728 329.146 230.504C329.45 230.264 329.602 229.912 329.602 229.448C329.602 228.984 329.45 228.64 329.146 228.416C328.858 228.176 328.426 228.056 327.85 228.056H324.658V230.84ZM324.658 225.92H327.634C328.114 225.92 328.49 225.808 328.762 225.584C329.034 225.344 329.17 225.024 329.17 224.624C329.17 224.208 329.034 223.896 328.762 223.688C328.49 223.48 328.114 223.376 327.634 223.376H324.658V225.92ZM339.252 233.264C338.388 233.264 337.612 233.096 336.924 232.76C336.236 232.424 335.7 231.968 335.316 231.392C334.932 230.816 334.74 230.168 334.74 229.448C334.74 228.584 334.964 227.904 335.412 227.408C335.86 226.896 336.588 226.536 337.596 226.328C338.604 226.104 339.94 225.992 341.604 225.992H342.876V227.864H341.628C340.812 227.864 340.148 227.912 339.636 228.008C339.14 228.088 338.78 228.232 338.556 228.44C338.348 228.648 338.244 228.936 338.244 229.304C338.244 229.752 338.396 230.12 338.7 230.408C339.02 230.696 339.476 230.84 340.068 230.84C340.532 230.84 340.94 230.736 341.292 230.528C341.66 230.304 341.948 230.008 342.156 229.64C342.364 229.256 342.468 228.824 342.468 228.344V225.584C342.468 224.88 342.308 224.384 341.988 224.096C341.668 223.792 341.124 223.64 340.356 223.64C339.924 223.64 339.452 223.696 338.94 223.808C338.444 223.904 337.892 224.072 337.284 224.312C336.932 224.472 336.62 224.512 336.348 224.432C336.076 224.336 335.868 224.176 335.724 223.952C335.58 223.712 335.508 223.456 335.508 223.184C335.508 222.896 335.588 222.624 335.748 222.368C335.908 222.096 336.172 221.896 336.54 221.768C337.292 221.464 337.996 221.256 338.652 221.144C339.324 221.032 339.94 220.976 340.5 220.976C341.732 220.976 342.74 221.16 343.524 221.528C344.324 221.88 344.924 222.432 345.324 223.184C345.724 223.92 345.924 224.872 345.924 226.04V231.368C345.924 231.96 345.78 232.416 345.492 232.736C345.204 233.056 344.788 233.216 344.244 233.216C343.7 233.216 343.276 233.056 342.972 232.736C342.684 232.416 342.54 231.96 342.54 231.368V230.48L342.708 230.624C342.612 231.168 342.404 231.64 342.084 232.04C341.78 232.424 341.388 232.728 340.908 232.952C340.428 233.16 339.876 233.264 339.252 233.264ZM350.849 233.216C350.257 233.216 349.801 233.056 349.481 232.736C349.177 232.416 349.025 231.96 349.025 231.368V222.848C349.025 222.24 349.177 221.784 349.481 221.48C349.801 221.176 350.257 221.024 350.849 221.024C351.425 221.024 351.865 221.176 352.169 221.48C352.489 221.784 352.649 222.24 352.649 222.848V225.584H357.137V222.848C357.137 222.24 357.289 221.784 357.593 221.48C357.897 221.176 358.345 221.024 358.937 221.024C359.513 221.024 359.961 221.176 360.281 221.48C360.601 221.784 360.761 222.24 360.761 222.848V231.368C360.761 231.96 360.601 232.416 360.281 232.736C359.961 233.056 359.513 233.216 358.937 233.216C358.345 233.216 357.897 233.056 357.593 232.736C357.289 232.416 357.137 231.96 357.137 231.368V228.392H352.649V231.368C352.649 231.96 352.497 232.416 352.193 232.736C351.889 233.056 351.441 233.216 350.849 233.216ZM365.732 233.216C365.14 233.216 364.684 233.056 364.364 232.736C364.06 232.416 363.908 231.96 363.908 231.368V222.848C363.908 222.24 364.06 221.784 364.364 221.48C364.684 221.176 365.14 221.024 365.732 221.024C366.308 221.024 366.748 221.176 367.052 221.48C367.372 221.784 367.532 222.24 367.532 222.848V225.584H372.02V222.848C372.02 222.24 372.172 221.784 372.476 221.48C372.78 221.176 373.228 221.024 373.82 221.024C374.396 221.024 374.844 221.176 375.164 221.48C375.484 221.784 375.644 222.24 375.644 222.848V231.368C375.644 231.96 375.484 232.416 375.164 232.736C374.844 233.056 374.396 233.216 373.82 233.216C373.228 233.216 372.78 233.056 372.476 232.736C372.172 232.416 372.02 231.96 372.02 231.368V228.392H367.532V231.368C367.532 231.96 367.38 232.416 367.076 232.736C366.772 233.056 366.324 233.216 365.732 233.216ZM380.543 233C379.983 233 379.551 232.848 379.247 232.544C378.943 232.24 378.791 231.8 378.791 231.224V222.848C378.791 222.24 378.943 221.784 379.247 221.48C379.567 221.176 380.023 221.024 380.615 221.024C381.191 221.024 381.631 221.176 381.935 221.48C382.255 221.784 382.415 222.24 382.415 222.848V224.96H385.247C386.831 224.96 388.023 225.296 388.823 225.968C389.639 226.624 390.047 227.6 390.047 228.896C390.047 229.712 389.847 230.432 389.447 231.056C389.047 231.664 388.487 232.144 387.767 232.496C387.063 232.832 386.223 233 385.247 233H380.543ZM382.415 230.672H384.623C385.279 230.672 385.791 230.528 386.159 230.24C386.543 229.952 386.735 229.52 386.735 228.944C386.735 228.368 386.551 227.944 386.183 227.672C385.815 227.4 385.295 227.264 384.623 227.264H382.415V230.672ZM393.071 233.216C392.495 233.216 392.047 233.056 391.727 232.736C391.423 232.416 391.271 231.96 391.271 231.368V222.848C391.271 222.24 391.423 221.784 391.727 221.48C392.047 221.176 392.495 221.024 393.071 221.024C393.663 221.024 394.111 221.176 394.415 221.48C394.735 221.784 394.895 222.24 394.895 222.848V231.368C394.895 232.6 394.287 233.216 393.071 233.216ZM399.305 233.168C398.857 233.168 398.497 233.048 398.225 232.808C397.953 232.552 397.809 232.232 397.793 231.848C397.793 231.464 397.953 231.072 398.273 230.672L401.993 226.112V227.744L398.537 223.52C398.201 223.104 398.041 222.704 398.057 222.32C398.073 221.936 398.217 221.624 398.489 221.384C398.761 221.144 399.121 221.024 399.569 221.024C400.001 221.024 400.361 221.096 400.649 221.24C400.937 221.384 401.209 221.624 401.465 221.96L404.033 225.248H402.761L405.329 221.96C405.601 221.624 405.881 221.384 406.169 221.24C406.457 221.096 406.809 221.024 407.225 221.024C407.673 221.024 408.033 221.152 408.305 221.408C408.577 221.648 408.713 221.96 408.713 222.344C408.729 222.728 408.569 223.12 408.233 223.52L404.777 227.744V226.112L408.521 230.672C408.857 231.056 409.017 231.44 409.001 231.824C408.985 232.208 408.833 232.528 408.545 232.784C408.273 233.04 407.913 233.168 407.465 233.168C407.033 233.168 406.673 233.096 406.385 232.952C406.113 232.792 405.841 232.552 405.569 232.232L402.761 228.656H403.985L401.177 232.232C400.921 232.536 400.649 232.768 400.361 232.928C400.089 233.088 399.737 233.168 399.305 233.168ZM420.388 233.216C419.796 233.216 419.34 233.056 419.02 232.736C418.716 232.416 418.564 231.96 418.564 231.368V223.256C418.564 222.6 418.732 222.096 419.068 221.744C419.42 221.392 419.924 221.216 420.58 221.216H428.188C428.844 221.216 429.348 221.392 429.7 221.744C430.052 222.096 430.228 222.6 430.228 223.256V231.368C430.228 231.96 430.068 232.416 429.748 232.736C429.428 233.056 428.98 233.216 428.404 233.216C427.812 233.216 427.364 233.056 427.06 232.736C426.756 232.416 426.604 231.96 426.604 231.368V224.024H422.188V231.368C422.188 231.96 422.036 232.416 421.732 232.736C421.428 233.056 420.98 233.216 420.388 233.216ZM435.201 237.536C434.609 237.536 434.153 237.376 433.833 237.056C433.529 236.752 433.377 236.296 433.377 235.688V222.848C433.377 222.256 433.529 221.808 433.833 221.504C434.153 221.184 434.593 221.024 435.153 221.024C435.745 221.024 436.193 221.184 436.497 221.504C436.801 221.808 436.953 222.256 436.953 222.848V224.48L436.689 223.544C436.929 222.776 437.409 222.16 438.129 221.696C438.865 221.216 439.705 220.976 440.649 220.976C441.673 220.976 442.569 221.224 443.337 221.72C444.121 222.216 444.729 222.92 445.161 223.832C445.593 224.744 445.809 225.832 445.809 227.096C445.809 228.36 445.593 229.456 445.161 230.384C444.729 231.312 444.129 232.024 443.361 232.52C442.593 233.016 441.689 233.264 440.649 233.264C439.721 233.264 438.897 233.04 438.177 232.592C437.457 232.128 436.969 231.528 436.713 230.792H437.001V235.688C437.001 236.296 436.841 236.752 436.521 237.056C436.217 237.376 435.777 237.536 435.201 237.536ZM439.569 230.552C440.081 230.552 440.529 230.424 440.913 230.168C441.313 229.912 441.617 229.536 441.825 229.04C442.049 228.528 442.161 227.88 442.161 227.096C442.161 225.928 441.921 225.072 441.441 224.528C440.961 223.968 440.337 223.688 439.569 223.688C439.057 223.688 438.601 223.808 438.201 224.048C437.817 224.288 437.513 224.664 437.289 225.176C437.065 225.672 436.953 226.312 436.953 227.096C436.953 228.264 437.193 229.136 437.673 229.712C438.153 230.272 438.785 230.552 439.569 230.552ZM454.064 233.264C452.8 233.264 451.696 233.016 450.752 232.52C449.824 232.024 449.104 231.312 448.592 230.384C448.08 229.456 447.824 228.36 447.824 227.096C447.824 226.152 447.968 225.304 448.256 224.552C448.544 223.8 448.96 223.16 449.504 222.632C450.064 222.088 450.728 221.68 451.496 221.408C452.264 221.12 453.12 220.976 454.064 220.976C455.328 220.976 456.424 221.224 457.352 221.72C458.296 222.216 459.024 222.92 459.536 223.832C460.064 224.744 460.328 225.832 460.328 227.096C460.328 228.056 460.176 228.912 459.872 229.664C459.584 230.416 459.168 231.064 458.624 231.608C458.08 232.152 457.416 232.568 456.632 232.856C455.864 233.128 455.008 233.264 454.064 233.264ZM454.064 230.552C454.592 230.552 455.048 230.424 455.432 230.168C455.816 229.912 456.12 229.536 456.344 229.04C456.568 228.528 456.68 227.88 456.68 227.096C456.68 225.928 456.44 225.072 455.96 224.528C455.48 223.968 454.848 223.688 454.064 223.688C453.552 223.688 453.096 223.808 452.696 224.048C452.312 224.288 452.008 224.664 451.784 225.176C451.576 225.672 451.472 226.312 451.472 227.096C451.472 228.264 451.712 229.136 452.192 229.712C452.672 230.272 453.296 230.552 454.064 230.552ZM469.005 233.264C467.613 233.264 466.413 233.016 465.405 232.52C464.413 232.008 463.645 231.296 463.101 230.384C462.573 229.456 462.309 228.368 462.309 227.12C462.309 225.904 462.565 224.84 463.077 223.928C463.589 223 464.301 222.28 465.213 221.768C466.141 221.24 467.189 220.976 468.357 220.976C469.205 220.976 469.973 221.12 470.661 221.408C471.349 221.68 471.941 222.08 472.437 222.608C472.933 223.12 473.309 223.752 473.565 224.504C473.821 225.24 473.949 226.064 473.949 226.976C473.949 227.28 473.853 227.512 473.661 227.672C473.469 227.816 473.189 227.888 472.821 227.888H465.285V226.016H471.333L470.949 226.352C470.949 225.696 470.853 225.152 470.661 224.72C470.469 224.272 470.189 223.936 469.821 223.712C469.469 223.488 469.029 223.376 468.501 223.376C467.909 223.376 467.405 223.512 466.989 223.784C466.573 224.056 466.253 224.448 466.029 224.96C465.805 225.472 465.693 226.088 465.693 226.808V227C465.693 228.216 465.973 229.112 466.533 229.688C467.109 230.264 467.957 230.552 469.077 230.552C469.461 230.552 469.901 230.504 470.397 230.408C470.893 230.312 471.357 230.16 471.789 229.952C472.157 229.776 472.485 229.72 472.773 229.784C473.061 229.832 473.285 229.96 473.445 230.168C473.605 230.376 473.693 230.616 473.709 230.888C473.741 231.16 473.685 231.432 473.541 231.704C473.397 231.96 473.157 232.176 472.821 232.352C472.277 232.656 471.661 232.88 470.973 233.024C470.301 233.184 469.645 233.264 469.005 233.264ZM478.256 233.216C477.664 233.216 477.208 233.056 476.888 232.736C476.584 232.416 476.432 231.96 476.432 231.368V222.872C476.432 222.28 476.584 221.824 476.888 221.504C477.208 221.184 477.664 221.024 478.256 221.024C478.832 221.024 479.272 221.184 479.576 221.504C479.896 221.824 480.056 222.28 480.056 222.872V225.608H481.472L484.16 221.864C484.416 221.496 484.712 221.256 485.048 221.144C485.4 221.032 485.736 221.024 486.056 221.12C486.376 221.216 486.64 221.392 486.848 221.648C487.056 221.888 487.168 222.176 487.184 222.512C487.216 222.848 487.096 223.208 486.824 223.592L484.232 227.24L483.512 226.064C483.944 226.112 484.336 226.24 484.688 226.448C485.04 226.656 485.36 226.928 485.648 227.264C485.936 227.584 486.208 227.976 486.464 228.44L487.736 230.768C487.96 231.168 488.032 231.544 487.952 231.896C487.888 232.232 487.72 232.512 487.448 232.736C487.192 232.96 486.888 233.096 486.536 233.144C486.184 233.208 485.84 233.168 485.504 233.024C485.168 232.88 484.888 232.6 484.664 232.184L483.2 229.592C483.04 229.272 482.872 229.024 482.696 228.848C482.52 228.672 482.32 228.552 482.096 228.488C481.888 228.424 481.64 228.392 481.352 228.392H480.056V231.368C480.056 231.96 479.896 232.416 479.576 232.736C479.272 233.056 478.832 233.216 478.256 233.216ZM494.626 233.216C494.05 233.216 493.602 233.056 493.282 232.736C492.978 232.416 492.826 231.96 492.826 231.368V224.048H490.234C489.226 224.048 488.722 223.576 488.722 222.632C488.722 222.184 488.85 221.84 489.106 221.6C489.378 221.344 489.754 221.216 490.234 221.216H499.018C500.042 221.216 500.554 221.688 500.554 222.632C500.554 223.096 500.418 223.448 500.146 223.688C499.89 223.928 499.514 224.048 499.018 224.048H496.45V231.368C496.45 231.96 496.298 232.416 495.994 232.736C495.69 233.056 495.234 233.216 494.626 233.216ZM507.596 233.264C506.332 233.264 505.228 233.016 504.284 232.52C503.356 232.024 502.636 231.312 502.124 230.384C501.612 229.456 501.356 228.36 501.356 227.096C501.356 226.152 501.5 225.304 501.788 224.552C502.076 223.8 502.492 223.16 503.036 222.632C503.596 222.088 504.26 221.68 505.028 221.408C505.796 221.12 506.652 220.976 507.596 220.976C508.86 220.976 509.956 221.224 510.884 221.72C511.828 222.216 512.556 222.92 513.068 223.832C513.596 224.744 513.86 225.832 513.86 227.096C513.86 228.056 513.708 228.912 513.404 229.664C513.116 230.416 512.7 231.064 512.156 231.608C511.612 232.152 510.948 232.568 510.164 232.856C509.396 233.128 508.54 233.264 507.596 233.264ZM507.596 230.552C508.124 230.552 508.58 230.424 508.964 230.168C509.348 229.912 509.652 229.536 509.876 229.04C510.1 228.528 510.212 227.88 510.212 227.096C510.212 225.928 509.972 225.072 509.492 224.528C509.012 223.968 508.38 223.688 507.596 223.688C507.084 223.688 506.628 223.808 506.228 224.048C505.844 224.288 505.54 224.664 505.316 225.176C505.108 225.672 505.004 226.312 505.004 227.096C505.004 228.264 505.244 229.136 505.724 229.712C506.204 230.272 506.828 230.552 507.596 230.552ZM518.168 233C517.608 233 517.176 232.848 516.872 232.544C516.568 232.24 516.416 231.8 516.416 231.224V222.992C516.416 222.416 516.568 221.976 516.872 221.672C517.176 221.368 517.608 221.216 518.168 221.216H523.112C524.184 221.216 525.04 221.344 525.68 221.6C526.336 221.84 526.808 222.192 527.096 222.656C527.384 223.104 527.528 223.656 527.528 224.312C527.528 225.032 527.28 225.648 526.784 226.16C526.288 226.656 525.632 226.968 524.816 227.096V226.736C525.888 226.816 526.68 227.12 527.192 227.648C527.704 228.176 527.96 228.856 527.96 229.688C527.96 230.696 527.56 231.504 526.76 232.112C525.976 232.704 524.824 233 523.304 233H518.168ZM519.752 230.84H522.944C523.52 230.84 523.952 230.728 524.24 230.504C524.544 230.264 524.696 229.912 524.696 229.448C524.696 228.984 524.544 228.64 524.24 228.416C523.952 228.176 523.52 228.056 522.944 228.056H519.752V230.84ZM519.752 225.92H522.728C523.208 225.92 523.584 225.808 523.856 225.584C524.128 225.344 524.264 225.024 524.264 224.624C524.264 224.208 524.128 223.896 523.856 223.688C523.584 223.48 523.208 223.376 522.728 223.376H519.752V225.92Z" fill="white"/>
<path d="M733.493 0H15.664C8.35736 0 3.51759 7.58101 6.59296 14.209L55.313 119.209C56.9516 122.741 60.4909 125 64.384 125H682.253C686.075 125 689.563 122.821 691.24 119.386L742.48 14.3857C745.722 7.74271 740.885 0 733.493 0Z" fill="#7B51D2"/>
<path d="M325.656 69.616C322.296 69.616 319.44 68.832 317.088 67.264C314.736 65.696 312.944 63.4373 311.712 60.488C310.48 57.5387 309.864 53.9733 309.864 49.792C309.864 46.4693 310.256 43.52 311.04 40.944C311.861 38.368 313.018 36.184 314.512 34.392C316.005 32.6 317.834 31.2373 320 30.304C322.202 29.3707 324.666 28.904 327.392 28.904C328.997 28.904 330.621 29.128 332.264 29.576C333.906 30.024 335.437 30.696 336.856 31.592C337.602 31.9653 338.106 32.5067 338.368 33.216C338.666 33.888 338.76 34.5787 338.648 35.288C338.536 35.9973 338.256 36.632 337.808 37.192C337.36 37.7147 336.781 38.0693 336.072 38.256C335.4 38.4053 334.616 38.2747 333.72 37.864C332.562 37.2293 331.442 36.7813 330.36 36.52C329.314 36.2587 328.288 36.128 327.28 36.128C325.301 36.128 323.621 36.576 322.24 37.472C320.858 38.368 319.813 39.712 319.104 41.504C318.432 43.296 318.096 45.5173 318.096 48.168V51.808H317.312C317.648 50.016 318.264 48.504 319.16 47.272C320.093 46.0027 321.269 45.032 322.688 44.36C324.106 43.688 325.674 43.352 327.392 43.352C329.632 43.352 331.61 43.912 333.328 45.032C335.082 46.1147 336.464 47.6267 337.472 49.568C338.48 51.472 338.984 53.656 338.984 56.12C338.984 58.7333 338.424 61.0667 337.304 63.12C336.184 65.136 334.616 66.7227 332.6 67.88C330.621 69.0373 328.306 69.616 325.656 69.616ZM325.208 62.84C326.365 62.84 327.373 62.5787 328.232 62.056C329.128 61.5333 329.8 60.7867 330.248 59.816C330.733 58.8453 330.976 57.7253 330.976 56.456C330.976 55.1867 330.733 54.0853 330.248 53.152C329.8 52.1813 329.128 51.4347 328.232 50.912C327.373 50.352 326.365 50.072 325.208 50.072C324.05 50.072 323.024 50.352 322.128 50.912C321.269 51.4347 320.597 52.1813 320.112 53.152C319.626 54.0853 319.384 55.1867 319.384 56.456C319.384 57.7253 319.626 58.8453 320.112 59.816C320.597 60.7867 321.269 61.5333 322.128 62.056C323.024 62.5787 324.05 62.84 325.208 62.84ZM357.722 69.616C352.943 69.616 349.285 67.8427 346.746 64.296C344.245 60.712 342.994 55.6533 342.994 49.12C342.994 44.752 343.554 41.0747 344.674 38.088C345.831 35.064 347.493 32.7867 349.658 31.256C351.861 29.688 354.549 28.904 357.722 28.904C362.538 28.904 366.197 30.64 368.698 34.112C371.199 37.5467 372.45 42.5493 372.45 49.12C372.45 53.488 371.871 57.2027 370.714 60.264C369.594 63.288 367.951 65.6027 365.786 67.208C363.621 68.8133 360.933 69.616 357.722 69.616ZM357.722 62.56C359.887 62.56 361.493 61.496 362.538 59.368C363.583 57.2027 364.106 53.7867 364.106 49.12C364.106 44.4533 363.583 41.0933 362.538 39.04C361.493 36.9867 359.887 35.96 357.722 35.96C355.557 35.96 353.951 36.9867 352.906 39.04C351.861 41.0933 351.338 44.4533 351.338 49.12C351.338 53.7867 351.861 57.2027 352.906 59.368C353.951 61.496 355.557 62.56 357.722 62.56ZM391.3 69.616C386.521 69.616 382.863 67.8427 380.324 64.296C377.823 60.712 376.572 55.6533 376.572 49.12C376.572 44.752 377.132 41.0747 378.252 38.088C379.409 35.064 381.071 32.7867 383.236 31.256C385.439 29.688 388.127 28.904 391.3 28.904C396.116 28.904 399.775 30.64 402.276 34.112C404.777 37.5467 406.028 42.5493 406.028 49.12C406.028 53.488 405.449 57.2027 404.292 60.264C403.172 63.288 401.529 65.6027 399.364 67.208C397.199 68.8133 394.511 69.616 391.3 69.616ZM391.3 62.56C393.465 62.56 395.071 61.496 396.116 59.368C397.161 57.2027 397.684 53.7867 397.684 49.12C397.684 44.4533 397.161 41.0933 396.116 39.04C395.071 36.9867 393.465 35.96 391.3 35.96C389.135 35.96 387.529 36.9867 386.484 39.04C385.439 41.0933 384.916 44.4533 384.916 49.12C384.916 53.7867 385.439 57.2027 386.484 59.368C387.529 61.496 389.135 62.56 391.3 62.56ZM424.878 67.264C423.907 67.264 423.161 67.0027 422.638 66.48C422.115 65.92 421.854 65.1547 421.854 64.184V55.84H413.678C412.745 55.84 412.017 55.5973 411.494 55.112C410.971 54.5893 410.71 53.8613 410.71 52.928C410.71 51.9947 410.971 51.2853 411.494 50.8C412.017 50.2773 412.745 50.016 413.678 50.016H421.854V42.008C421.854 41 422.115 40.2347 422.638 39.712C423.161 39.1893 423.926 38.928 424.934 38.928C425.905 38.928 426.633 39.1893 427.118 39.712C427.641 40.2347 427.902 41 427.902 42.008V50.016H436.078C437.049 50.016 437.777 50.2773 438.262 50.8C438.785 51.2853 439.046 51.9947 439.046 52.928C439.046 53.8613 438.785 54.5893 438.262 55.112C437.777 55.5973 437.049 55.84 436.078 55.84H427.902V64.184C427.902 65.1547 427.641 65.92 427.118 66.48C426.633 67.0027 425.886 67.264 424.878 67.264Z" fill="url(#paint0_linear_207_127)"/>
<path d="M161.235 101.216C160.787 101.216 160.419 101.112 160.131 100.904C159.859 100.696 159.683 100.416 159.603 100.064C159.539 99.712 159.611 99.32 159.819 98.888L165.963 85.424C166.219 84.88 166.523 84.488 166.875 84.248C167.227 83.992 167.635 83.864 168.099 83.864C168.563 83.864 168.971 83.992 169.323 84.248C169.675 84.488 169.971 84.88 170.211 85.424L176.403 98.888C176.611 99.32 176.683 99.72 176.619 100.088C176.571 100.44 176.411 100.72 176.139 100.928C175.867 101.12 175.515 101.216 175.083 101.216C174.539 101.216 174.115 101.088 173.811 100.832C173.523 100.576 173.267 100.176 173.043 99.632L171.603 96.296L173.091 97.328H163.083L164.571 96.296L163.155 99.632C162.915 100.192 162.659 100.6 162.387 100.856C162.131 101.096 161.747 101.216 161.235 101.216ZM168.051 88.04L164.979 95.36L164.331 94.424H171.843L171.195 95.36L168.099 88.04H168.051ZM180.457 101C179.897 101 179.465 100.848 179.161 100.544C178.857 100.24 178.705 99.8 178.705 99.224V90.992C178.705 90.416 178.857 89.976 179.161 89.672C179.465 89.368 179.897 89.216 180.457 89.216H185.401C186.473 89.216 187.329 89.344 187.969 89.6C188.625 89.84 189.097 90.192 189.385 90.656C189.673 91.104 189.817 91.656 189.817 92.312C189.817 93.032 189.569 93.648 189.073 94.16C188.577 94.656 187.921 94.968 187.105 95.096V94.736C188.177 94.816 188.969 95.12 189.481 95.648C189.993 96.176 190.249 96.856 190.249 97.688C190.249 98.696 189.849 99.504 189.049 100.112C188.265 100.704 187.113 101 185.593 101H180.457ZM182.041 98.84H185.233C185.809 98.84 186.241 98.728 186.529 98.504C186.833 98.264 186.985 97.912 186.985 97.448C186.985 96.984 186.833 96.64 186.529 96.416C186.241 96.176 185.809 96.056 185.233 96.056H182.041V98.84ZM182.041 93.92H185.017C185.497 93.92 185.873 93.808 186.145 93.584C186.417 93.344 186.553 93.024 186.553 92.624C186.553 92.208 186.417 91.896 186.145 91.688C185.873 91.48 185.497 91.376 185.017 91.376H182.041V93.92ZM197.181 101.216C196.605 101.216 196.157 101.056 195.837 100.736C195.533 100.416 195.381 99.96 195.381 99.368V92.048H192.789C191.781 92.048 191.277 91.576 191.277 90.632C191.277 90.184 191.405 89.84 191.661 89.6C191.933 89.344 192.309 89.216 192.789 89.216H201.573C202.597 89.216 203.109 89.688 203.109 90.632C203.109 91.096 202.973 91.448 202.701 91.688C202.445 91.928 202.069 92.048 201.573 92.048H199.005V99.368C199.005 99.96 198.853 100.416 198.549 100.736C198.245 101.056 197.789 101.216 197.181 101.216ZM210.15 101.264C208.886 101.264 207.782 101.016 206.838 100.52C205.91 100.024 205.19 99.312 204.678 98.384C204.166 97.456 203.91 96.36 203.91 95.096C203.91 94.152 204.054 93.304 204.342 92.552C204.63 91.8 205.046 91.16 205.59 90.632C206.15 90.088 206.814 89.68 207.582 89.408C208.35 89.12 209.206 88.976 210.15 88.976C211.414 88.976 212.51 89.224 213.438 89.72C214.382 90.216 215.11 90.92 215.622 91.832C216.15 92.744 216.414 93.832 216.414 95.096C216.414 96.056 216.262 96.912 215.958 97.664C215.67 98.416 215.254 99.064 214.71 99.608C214.166 100.152 213.502 100.568 212.718 100.856C211.95 101.128 211.094 101.264 210.15 101.264ZM210.15 98.552C210.678 98.552 211.134 98.424 211.518 98.168C211.902 97.912 212.206 97.536 212.43 97.04C212.654 96.528 212.766 95.88 212.766 95.096C212.766 93.928 212.526 93.072 212.046 92.528C211.566 91.968 210.934 91.688 210.15 91.688C209.638 91.688 209.182 91.808 208.782 92.048C208.398 92.288 208.094 92.664 207.87 93.176C207.662 93.672 207.558 94.312 207.558 95.096C207.558 96.264 207.798 97.136 208.278 97.712C208.758 98.272 209.382 98.552 210.15 98.552ZM220.555 101.216C220.043 101.216 219.651 101.072 219.379 100.784C219.107 100.48 218.971 100.056 218.971 99.512V91.016C218.971 90.584 219.027 90.224 219.139 89.936C219.251 89.632 219.435 89.408 219.691 89.264C219.947 89.104 220.259 89.024 220.627 89.024C220.979 89.024 221.275 89.08 221.515 89.192C221.755 89.304 221.963 89.456 222.139 89.648C222.315 89.84 222.475 90.064 222.619 90.32L225.811 95.648L228.979 90.344C229.107 90.104 229.251 89.888 229.411 89.696C229.587 89.504 229.795 89.344 230.035 89.216C230.291 89.088 230.595 89.024 230.947 89.024C231.523 89.024 231.947 89.2 232.219 89.552C232.491 89.888 232.627 90.376 232.627 91.016V99.512C232.627 100.056 232.491 100.48 232.219 100.784C231.947 101.072 231.547 101.216 231.019 101.216C230.523 101.216 230.131 101.072 229.843 100.784C229.571 100.48 229.435 100.056 229.435 99.512V93.416H230.035L227.011 98.456C226.899 98.632 226.755 98.8 226.579 98.96C226.403 99.12 226.147 99.2 225.811 99.2C225.475 99.2 225.219 99.12 225.043 98.96C224.867 98.8 224.715 98.632 224.587 98.456L221.539 93.416H222.139V99.512C222.139 100.056 222.003 100.48 221.731 100.784C221.459 101.072 221.067 101.216 220.555 101.216ZM239.759 101.264C238.895 101.264 238.119 101.096 237.431 100.76C236.743 100.424 236.207 99.968 235.823 99.392C235.439 98.816 235.247 98.168 235.247 97.448C235.247 96.584 235.471 95.904 235.919 95.408C236.367 94.896 237.095 94.536 238.103 94.328C239.111 94.104 240.447 93.992 242.111 93.992H243.383V95.864H242.135C241.319 95.864 240.655 95.912 240.143 96.008C239.647 96.088 239.287 96.232 239.063 96.44C238.855 96.648 238.751 96.936 238.751 97.304C238.751 97.752 238.903 98.12 239.207 98.408C239.527 98.696 239.983 98.84 240.575 98.84C241.039 98.84 241.447 98.736 241.799 98.528C242.167 98.304 242.455 98.008 242.663 97.64C242.871 97.256 242.975 96.824 242.975 96.344V93.584C242.975 92.88 242.815 92.384 242.495 92.096C242.175 91.792 241.631 91.64 240.863 91.64C240.431 91.64 239.959 91.696 239.447 91.808C238.951 91.904 238.399 92.072 237.791 92.312C237.439 92.472 237.127 92.512 236.855 92.432C236.583 92.336 236.375 92.176 236.231 91.952C236.087 91.712 236.015 91.456 236.015 91.184C236.015 90.896 236.095 90.624 236.255 90.368C236.415 90.096 236.679 89.896 237.047 89.768C237.799 89.464 238.503 89.256 239.159 89.144C239.831 89.032 240.447 88.976 241.007 88.976C242.239 88.976 243.247 89.16 244.031 89.528C244.831 89.88 245.431 90.432 245.831 91.184C246.231 91.92 246.431 92.872 246.431 94.04V99.368C246.431 99.96 246.287 100.416 245.999 100.736C245.711 101.056 245.295 101.216 244.751 101.216C244.207 101.216 243.783 101.056 243.479 100.736C243.191 100.416 243.047 99.96 243.047 99.368V98.48L243.215 98.624C243.119 99.168 242.911 99.64 242.591 100.04C242.287 100.424 241.895 100.728 241.415 100.952C240.935 101.16 240.383 101.264 239.759 101.264ZM253.829 101.216C253.253 101.216 252.805 101.056 252.485 100.736C252.181 100.416 252.029 99.96 252.029 99.368V92.048H249.437C248.429 92.048 247.925 91.576 247.925 90.632C247.925 90.184 248.053 89.84 248.309 89.6C248.581 89.344 248.957 89.216 249.437 89.216H258.221C259.245 89.216 259.757 89.688 259.757 90.632C259.757 91.096 259.621 91.448 259.349 91.688C259.093 91.928 258.717 92.048 258.221 92.048H255.653V99.368C255.653 99.96 255.501 100.416 255.197 100.736C254.893 101.056 254.437 101.216 253.829 101.216ZM262.979 101.216C262.611 101.216 262.299 101.144 262.043 101C261.787 100.856 261.595 100.648 261.467 100.376C261.355 100.088 261.299 99.72 261.299 99.272V90.752C261.299 90.192 261.443 89.768 261.731 89.48C262.019 89.176 262.419 89.024 262.931 89.024C263.459 89.024 263.859 89.176 264.131 89.48C264.419 89.768 264.563 90.192 264.563 90.752V97.208H263.915L269.219 90.176C269.411 89.92 269.659 89.664 269.963 89.408C270.267 89.152 270.699 89.024 271.259 89.024C271.627 89.024 271.931 89.096 272.171 89.24C272.427 89.368 272.611 89.576 272.723 89.864C272.851 90.136 272.915 90.496 272.915 90.944V99.488C272.915 100.032 272.771 100.456 272.483 100.76C272.211 101.064 271.819 101.216 271.307 101.216C270.763 101.216 270.347 101.064 270.059 100.76C269.787 100.456 269.651 100.032 269.651 99.488V93.008H270.323L264.995 100.04C264.803 100.312 264.555 100.576 264.251 100.832C263.963 101.088 263.539 101.216 262.979 101.216ZM280.696 101.264C279.912 101.264 279.144 101.192 278.392 101.048C277.64 100.92 276.952 100.728 276.328 100.472C275.976 100.328 275.712 100.136 275.536 99.896C275.376 99.656 275.288 99.4 275.272 99.128C275.272 98.856 275.344 98.616 275.488 98.408C275.648 98.2 275.864 98.064 276.136 98C276.424 97.92 276.768 97.952 277.168 98.096C277.68 98.304 278.24 98.464 278.848 98.576C279.472 98.672 280.064 98.72 280.624 98.72C281.536 98.72 282.192 98.624 282.592 98.432C283.008 98.224 283.216 97.904 283.216 97.472C283.216 97.104 283.072 96.824 282.784 96.632C282.512 96.424 282.104 96.32 281.56 96.32H279.376C278.944 96.32 278.608 96.208 278.368 95.984C278.128 95.744 278.008 95.432 278.008 95.048C278.008 94.648 278.128 94.344 278.368 94.136C278.608 93.912 278.944 93.8 279.376 93.8H281.248C281.728 93.8 282.096 93.712 282.352 93.536C282.624 93.344 282.76 93.072 282.76 92.72C282.76 92.336 282.584 92.04 282.232 91.832C281.896 91.624 281.256 91.52 280.312 91.52C279.8 91.52 279.296 91.568 278.8 91.664C278.32 91.744 277.848 91.872 277.384 92.048C276.904 92.208 276.504 92.216 276.184 92.072C275.864 91.928 275.64 91.704 275.512 91.4C275.4 91.096 275.408 90.792 275.536 90.488C275.68 90.168 275.968 89.928 276.4 89.768C277.088 89.496 277.808 89.296 278.56 89.168C279.328 89.04 280.128 88.976 280.96 88.976C282.592 88.976 283.84 89.272 284.704 89.864C285.584 90.44 286.024 91.256 286.024 92.312C286.024 93.032 285.776 93.648 285.28 94.16C284.8 94.656 284.144 94.968 283.312 95.096V94.736C284.336 94.816 285.12 95.112 285.664 95.624C286.208 96.12 286.48 96.808 286.48 97.688C286.48 98.776 285.976 99.648 284.968 100.304C283.96 100.944 282.536 101.264 280.696 101.264ZM290.565 101.216C290.197 101.216 289.885 101.144 289.629 101C289.373 100.856 289.181 100.648 289.053 100.376C288.941 100.088 288.885 99.72 288.885 99.272V90.752C288.885 90.192 289.029 89.768 289.317 89.48C289.605 89.176 290.005 89.024 290.517 89.024C291.045 89.024 291.445 89.176 291.717 89.48C292.005 89.768 292.149 90.192 292.149 90.752V97.208H291.501L296.805 90.176C296.997 89.92 297.245 89.664 297.549 89.408C297.853 89.152 298.285 89.024 298.845 89.024C299.213 89.024 299.517 89.096 299.757 89.24C300.013 89.368 300.197 89.576 300.309 89.864C300.437 90.136 300.501 90.496 300.501 90.944V99.488C300.501 100.032 300.357 100.456 300.069 100.76C299.797 101.064 299.405 101.216 298.893 101.216C298.349 101.216 297.933 101.064 297.645 100.76C297.373 100.456 297.237 100.032 297.237 99.488V93.008H297.909L292.581 100.04C292.389 100.312 292.141 100.576 291.837 100.832C291.549 101.088 291.125 101.216 290.565 101.216ZM305.498 105.536C304.906 105.536 304.45 105.376 304.13 105.056C303.826 104.752 303.674 104.296 303.674 103.688V90.848C303.674 90.256 303.826 89.808 304.13 89.504C304.45 89.184 304.89 89.024 305.45 89.024C306.042 89.024 306.49 89.184 306.794 89.504C307.098 89.808 307.25 90.256 307.25 90.848V92.48L306.986 91.544C307.226 90.776 307.706 90.16 308.426 89.696C309.162 89.216 310.002 88.976 310.946 88.976C311.97 88.976 312.866 89.224 313.634 89.72C314.418 90.216 315.026 90.92 315.458 91.832C315.89 92.744 316.106 93.832 316.106 95.096C316.106 96.36 315.89 97.456 315.458 98.384C315.026 99.312 314.426 100.024 313.658 100.52C312.89 101.016 311.986 101.264 310.946 101.264C310.018 101.264 309.194 101.04 308.474 100.592C307.754 100.128 307.266 99.528 307.01 98.792H307.298V103.688C307.298 104.296 307.138 104.752 306.818 105.056C306.514 105.376 306.074 105.536 305.498 105.536ZM309.866 98.552C310.378 98.552 310.826 98.424 311.21 98.168C311.61 97.912 311.914 97.536 312.122 97.04C312.346 96.528 312.458 95.88 312.458 95.096C312.458 93.928 312.218 93.072 311.738 92.528C311.258 91.968 310.634 91.688 309.866 91.688C309.354 91.688 308.898 91.808 308.498 92.048C308.114 92.288 307.81 92.664 307.586 93.176C307.362 93.672 307.25 94.312 307.25 95.096C307.25 96.264 307.49 97.136 307.97 97.712C308.45 98.272 309.082 98.552 309.866 98.552ZM324.361 101.264C323.097 101.264 321.993 101.016 321.049 100.52C320.121 100.024 319.401 99.312 318.889 98.384C318.377 97.456 318.121 96.36 318.121 95.096C318.121 94.152 318.265 93.304 318.553 92.552C318.841 91.8 319.257 91.16 319.801 90.632C320.361 90.088 321.025 89.68 321.793 89.408C322.561 89.12 323.417 88.976 324.361 88.976C325.625 88.976 326.721 89.224 327.649 89.72C328.593 90.216 329.321 90.92 329.833 91.832C330.361 92.744 330.625 93.832 330.625 95.096C330.625 96.056 330.473 96.912 330.169 97.664C329.881 98.416 329.465 99.064 328.921 99.608C328.377 100.152 327.713 100.568 326.929 100.856C326.161 101.128 325.305 101.264 324.361 101.264ZM324.361 98.552C324.889 98.552 325.345 98.424 325.729 98.168C326.113 97.912 326.417 97.536 326.641 97.04C326.865 96.528 326.977 95.88 326.977 95.096C326.977 93.928 326.737 93.072 326.257 92.528C325.777 91.968 325.145 91.688 324.361 91.688C323.849 91.688 323.393 91.808 322.993 92.048C322.609 92.288 322.305 92.664 322.081 93.176C321.873 93.672 321.769 94.312 321.769 95.096C321.769 96.264 322.009 97.136 322.489 97.712C322.969 98.272 323.593 98.552 324.361 98.552ZM334.934 101C334.374 101 333.942 100.848 333.638 100.544C333.334 100.24 333.182 99.8 333.182 99.224V90.992C333.182 90.416 333.334 89.976 333.638 89.672C333.942 89.368 334.374 89.216 334.934 89.216H339.878C340.95 89.216 341.806 89.344 342.446 89.6C343.102 89.84 343.574 90.192 343.862 90.656C344.15 91.104 344.294 91.656 344.294 92.312C344.294 93.032 344.046 93.648 343.55 94.16C343.054 94.656 342.398 94.968 341.582 95.096V94.736C342.654 94.816 343.446 95.12 343.958 95.648C344.47 96.176 344.726 96.856 344.726 97.688C344.726 98.696 344.326 99.504 343.526 100.112C342.742 100.704 341.59 101 340.07 101H334.934ZM336.518 98.84H339.71C340.286 98.84 340.718 98.728 341.006 98.504C341.31 98.264 341.462 97.912 341.462 97.448C341.462 96.984 341.31 96.64 341.006 96.416C340.718 96.176 340.286 96.056 339.71 96.056H336.518V98.84ZM336.518 93.92H339.494C339.974 93.92 340.35 93.808 340.622 93.584C340.894 93.344 341.03 93.024 341.03 92.624C341.03 92.208 340.894 91.896 340.622 91.688C340.35 91.48 339.974 91.376 339.494 91.376H336.518V93.92ZM351.111 101.264C350.247 101.264 349.471 101.096 348.783 100.76C348.095 100.424 347.559 99.968 347.175 99.392C346.791 98.816 346.599 98.168 346.599 97.448C346.599 96.584 346.823 95.904 347.271 95.408C347.719 94.896 348.447 94.536 349.455 94.328C350.463 94.104 351.799 93.992 353.463 93.992H354.735V95.864H353.487C352.671 95.864 352.007 95.912 351.495 96.008C350.999 96.088 350.639 96.232 350.415 96.44C350.207 96.648 350.103 96.936 350.103 97.304C350.103 97.752 350.255 98.12 350.559 98.408C350.879 98.696 351.335 98.84 351.927 98.84C352.391 98.84 352.799 98.736 353.151 98.528C353.519 98.304 353.807 98.008 354.015 97.64C354.223 97.256 354.327 96.824 354.327 96.344V93.584C354.327 92.88 354.167 92.384 353.847 92.096C353.527 91.792 352.983 91.64 352.215 91.64C351.783 91.64 351.311 91.696 350.799 91.808C350.303 91.904 349.751 92.072 349.143 92.312C348.791 92.472 348.479 92.512 348.207 92.432C347.935 92.336 347.727 92.176 347.583 91.952C347.439 91.712 347.367 91.456 347.367 91.184C347.367 90.896 347.447 90.624 347.607 90.368C347.767 90.096 348.031 89.896 348.399 89.768C349.151 89.464 349.855 89.256 350.511 89.144C351.183 89.032 351.799 88.976 352.359 88.976C353.591 88.976 354.599 89.16 355.383 89.528C356.183 89.88 356.783 90.432 357.183 91.184C357.583 91.92 357.783 92.872 357.783 94.04V99.368C357.783 99.96 357.639 100.416 357.351 100.736C357.063 101.056 356.647 101.216 356.103 101.216C355.559 101.216 355.135 101.056 354.831 100.736C354.543 100.416 354.399 99.96 354.399 99.368V98.48L354.567 98.624C354.471 99.168 354.263 99.64 353.943 100.04C353.639 100.424 353.247 100.728 352.767 100.952C352.287 101.16 351.735 101.264 351.111 101.264ZM362.709 101.216C362.117 101.216 361.661 101.056 361.341 100.736C361.037 100.416 360.885 99.96 360.885 99.368V90.848C360.885 90.24 361.037 89.784 361.341 89.48C361.661 89.176 362.117 89.024 362.709 89.024C363.285 89.024 363.725 89.176 364.029 89.48C364.349 89.784 364.509 90.24 364.509 90.848V93.584H368.997V90.848C368.997 90.24 369.149 89.784 369.453 89.48C369.757 89.176 370.205 89.024 370.797 89.024C371.373 89.024 371.821 89.176 372.141 89.48C372.461 89.784 372.621 90.24 372.621 90.848V99.368C372.621 99.96 372.461 100.416 372.141 100.736C371.821 101.056 371.373 101.216 370.797 101.216C370.205 101.216 369.757 101.056 369.453 100.736C369.149 100.416 368.997 99.96 368.997 99.368V96.392H364.509V99.368C364.509 99.96 364.357 100.416 364.053 100.736C363.749 101.056 363.301 101.216 362.709 101.216ZM377.592 101.216C377 101.216 376.544 101.056 376.224 100.736C375.92 100.416 375.768 99.96 375.768 99.368V90.848C375.768 90.24 375.92 89.784 376.224 89.48C376.544 89.176 377 89.024 377.592 89.024C378.168 89.024 378.608 89.176 378.912 89.48C379.232 89.784 379.392 90.24 379.392 90.848V93.584H383.88V90.848C383.88 90.24 384.032 89.784 384.336 89.48C384.64 89.176 385.088 89.024 385.68 89.024C386.256 89.024 386.704 89.176 387.024 89.48C387.344 89.784 387.504 90.24 387.504 90.848V99.368C387.504 99.96 387.344 100.416 387.024 100.736C386.704 101.056 386.256 101.216 385.68 101.216C385.088 101.216 384.64 101.056 384.336 100.736C384.032 100.416 383.88 99.96 383.88 99.368V96.392H379.392V99.368C379.392 99.96 379.24 100.416 378.936 100.736C378.632 101.056 378.184 101.216 377.592 101.216ZM392.402 101C391.842 101 391.41 100.848 391.106 100.544C390.802 100.24 390.65 99.8 390.65 99.224V90.848C390.65 90.24 390.802 89.784 391.106 89.48C391.426 89.176 391.882 89.024 392.474 89.024C393.05 89.024 393.49 89.176 393.794 89.48C394.114 89.784 394.274 90.24 394.274 90.848V92.96H397.106C398.69 92.96 399.882 93.296 400.682 93.968C401.498 94.624 401.906 95.6 401.906 96.896C401.906 97.712 401.706 98.432 401.306 99.056C400.906 99.664 400.346 100.144 399.626 100.496C398.922 100.832 398.082 101 397.106 101H392.402ZM394.274 98.672H396.482C397.138 98.672 397.65 98.528 398.018 98.24C398.402 97.952 398.594 97.52 398.594 96.944C398.594 96.368 398.41 95.944 398.042 95.672C397.674 95.4 397.154 95.264 396.482 95.264H394.274V98.672ZM404.93 101.216C404.354 101.216 403.906 101.056 403.586 100.736C403.282 100.416 403.13 99.96 403.13 99.368V90.848C403.13 90.24 403.282 89.784 403.586 89.48C403.906 89.176 404.354 89.024 404.93 89.024C405.522 89.024 405.97 89.176 406.274 89.48C406.594 89.784 406.754 90.24 406.754 90.848V99.368C406.754 100.6 406.146 101.216 404.93 101.216ZM411.164 101.168C410.716 101.168 410.356 101.048 410.084 100.808C409.812 100.552 409.668 100.232 409.652 99.848C409.652 99.464 409.812 99.072 410.132 98.672L413.852 94.112V95.744L410.396 91.52C410.06 91.104 409.9 90.704 409.916 90.32C409.932 89.936 410.076 89.624 410.348 89.384C410.62 89.144 410.98 89.024 411.428 89.024C411.86 89.024 412.22 89.096 412.508 89.24C412.796 89.384 413.068 89.624 413.324 89.96L415.892 93.248H414.62L417.188 89.96C417.46 89.624 417.74 89.384 418.028 89.24C418.316 89.096 418.668 89.024 419.084 89.024C419.532 89.024 419.892 89.152 420.164 89.408C420.436 89.648 420.572 89.96 420.572 90.344C420.588 90.728 420.428 91.12 420.092 91.52L416.636 95.744V94.112L420.38 98.672C420.716 99.056 420.876 99.44 420.86 99.824C420.844 100.208 420.692 100.528 420.404 100.784C420.132 101.04 419.772 101.168 419.324 101.168C418.892 101.168 418.532 101.096 418.244 100.952C417.972 100.792 417.7 100.552 417.428 100.232L414.62 96.656H415.844L413.036 100.232C412.78 100.536 412.508 100.768 412.22 100.928C411.948 101.088 411.596 101.168 411.164 101.168ZM432.248 105.536C431.656 105.536 431.2 105.376 430.88 105.056C430.576 104.752 430.424 104.296 430.424 103.688V90.848C430.424 90.256 430.576 89.808 430.88 89.504C431.2 89.184 431.64 89.024 432.2 89.024C432.792 89.024 433.24 89.184 433.544 89.504C433.848 89.808 434 90.256 434 90.848V92.48L433.736 91.544C433.976 90.776 434.456 90.16 435.176 89.696C435.912 89.216 436.752 88.976 437.696 88.976C438.72 88.976 439.616 89.224 440.384 89.72C441.168 90.216 441.776 90.92 442.208 91.832C442.64 92.744 442.856 93.832 442.856 95.096C442.856 96.36 442.64 97.456 442.208 98.384C441.776 99.312 441.176 100.024 440.408 100.52C439.64 101.016 438.736 101.264 437.696 101.264C436.768 101.264 435.944 101.04 435.224 100.592C434.504 100.128 434.016 99.528 433.76 98.792H434.048V103.688C434.048 104.296 433.888 104.752 433.568 105.056C433.264 105.376 432.824 105.536 432.248 105.536ZM436.616 98.552C437.128 98.552 437.576 98.424 437.96 98.168C438.36 97.912 438.664 97.536 438.872 97.04C439.096 96.528 439.208 95.88 439.208 95.096C439.208 93.928 438.968 93.072 438.488 92.528C438.008 91.968 437.384 91.688 436.616 91.688C436.104 91.688 435.648 91.808 435.248 92.048C434.864 92.288 434.56 92.664 434.336 93.176C434.112 93.672 434 94.312 434 95.096C434 96.264 434.24 97.136 434.72 97.712C435.2 98.272 435.832 98.552 436.616 98.552ZM449.431 101.264C448.567 101.264 447.791 101.096 447.103 100.76C446.415 100.424 445.879 99.968 445.495 99.392C445.111 98.816 444.919 98.168 444.919 97.448C444.919 96.584 445.143 95.904 445.591 95.408C446.039 94.896 446.767 94.536 447.775 94.328C448.783 94.104 450.119 93.992 451.783 93.992H453.055V95.864H451.807C450.991 95.864 450.327 95.912 449.815 96.008C449.319 96.088 448.959 96.232 448.735 96.44C448.527 96.648 448.423 96.936 448.423 97.304C448.423 97.752 448.575 98.12 448.879 98.408C449.199 98.696 449.655 98.84 450.247 98.84C450.711 98.84 451.119 98.736 451.471 98.528C451.839 98.304 452.127 98.008 452.335 97.64C452.543 97.256 452.647 96.824 452.647 96.344V93.584C452.647 92.88 452.487 92.384 452.167 92.096C451.847 91.792 451.303 91.64 450.535 91.64C450.103 91.64 449.631 91.696 449.119 91.808C448.623 91.904 448.071 92.072 447.463 92.312C447.111 92.472 446.799 92.512 446.527 92.432C446.255 92.336 446.047 92.176 445.903 91.952C445.759 91.712 445.687 91.456 445.687 91.184C445.687 90.896 445.767 90.624 445.927 90.368C446.087 90.096 446.351 89.896 446.719 89.768C447.471 89.464 448.175 89.256 448.831 89.144C449.503 89.032 450.119 88.976 450.679 88.976C451.911 88.976 452.919 89.16 453.703 89.528C454.503 89.88 455.103 90.432 455.503 91.184C455.903 91.92 456.103 92.872 456.103 94.04V99.368C456.103 99.96 455.959 100.416 455.671 100.736C455.383 101.056 454.967 101.216 454.423 101.216C453.879 101.216 453.455 101.056 453.151 100.736C452.863 100.416 452.719 99.96 452.719 99.368V98.48L452.887 98.624C452.791 99.168 452.583 99.64 452.263 100.04C451.959 100.424 451.567 100.728 451.087 100.952C450.607 101.16 450.055 101.264 449.431 101.264ZM465.013 101.264C463.717 101.264 462.589 101.008 461.629 100.496C460.669 99.968 459.925 99.192 459.397 98.168C458.885 97.128 458.629 95.848 458.629 94.328V92.624C458.629 91.024 458.877 89.688 459.373 88.616C459.885 87.528 460.637 86.656 461.629 86C462.621 85.344 463.845 84.856 465.301 84.536L468.181 83.864C468.677 83.752 469.093 83.792 469.429 83.984C469.765 84.16 469.981 84.488 470.077 84.968C470.173 85.448 470.093 85.848 469.837 86.168C469.597 86.488 469.229 86.696 468.733 86.792L465.565 87.488C464.797 87.664 464.149 87.936 463.621 88.304C463.093 88.672 462.693 89.136 462.421 89.696C462.149 90.24 462.013 90.888 462.013 91.64V93.128H461.557C461.701 92.456 461.957 91.84 462.325 91.28C462.709 90.72 463.213 90.28 463.837 89.96C464.477 89.624 465.229 89.456 466.093 89.456C467.069 89.456 467.933 89.688 468.685 90.152C469.437 90.616 470.029 91.28 470.461 92.144C470.909 92.992 471.133 94.008 471.133 95.192C471.133 96.424 470.877 97.496 470.365 98.408C469.853 99.32 469.141 100.024 468.229 100.52C467.317 101.016 466.245 101.264 465.013 101.264ZM464.893 98.552C465.453 98.552 465.925 98.432 466.309 98.192C466.693 97.936 466.981 97.576 467.173 97.112C467.381 96.632 467.485 96.048 467.485 95.36C467.485 94.32 467.253 93.528 466.789 92.984C466.341 92.424 465.701 92.144 464.869 92.144C464.325 92.144 463.853 92.272 463.453 92.528C463.069 92.768 462.773 93.12 462.565 93.584C462.373 94.048 462.277 94.608 462.277 95.264C462.277 96.336 462.501 97.152 462.949 97.712C463.397 98.272 464.045 98.552 464.893 98.552ZM479.353 101.264C478.089 101.264 476.985 101.016 476.041 100.52C475.113 100.024 474.393 99.312 473.881 98.384C473.369 97.456 473.113 96.36 473.113 95.096C473.113 94.152 473.257 93.304 473.545 92.552C473.833 91.8 474.249 91.16 474.793 90.632C475.353 90.088 476.017 89.68 476.785 89.408C477.553 89.12 478.409 88.976 479.353 88.976C480.617 88.976 481.713 89.224 482.641 89.72C483.585 90.216 484.313 90.92 484.825 91.832C485.353 92.744 485.617 93.832 485.617 95.096C485.617 96.056 485.465 96.912 485.161 97.664C484.873 98.416 484.457 99.064 483.913 99.608C483.369 100.152 482.705 100.568 481.921 100.856C481.153 101.128 480.297 101.264 479.353 101.264ZM479.353 98.552C479.881 98.552 480.337 98.424 480.721 98.168C481.105 97.912 481.409 97.536 481.633 97.04C481.857 96.528 481.969 95.88 481.969 95.096C481.969 93.928 481.729 93.072 481.249 92.528C480.769 91.968 480.137 91.688 479.353 91.688C478.841 91.688 478.385 91.808 477.985 92.048C477.601 92.288 477.297 92.664 477.073 93.176C476.865 93.672 476.761 94.312 476.761 95.096C476.761 96.264 477.001 97.136 477.481 97.712C477.961 98.272 478.585 98.552 479.353 98.552ZM497.318 101.216C496.742 101.216 496.302 101.048 495.998 100.712C495.694 100.376 495.542 99.896 495.542 99.272V97.04C495.126 97.216 494.702 97.344 494.27 97.424C493.854 97.504 493.438 97.544 493.022 97.544C491.23 97.544 489.894 97.112 489.014 96.248C488.134 95.368 487.694 94.064 487.694 92.336V90.848C487.694 90.256 487.846 89.808 488.15 89.504C488.47 89.184 488.918 89.024 489.494 89.024C490.07 89.024 490.518 89.184 490.838 89.504C491.158 89.808 491.318 90.256 491.318 90.848V92C491.318 92.928 491.494 93.6 491.846 94.016C492.214 94.432 492.838 94.64 493.718 94.64C494.054 94.64 494.366 94.608 494.654 94.544C494.958 94.464 495.23 94.344 495.47 94.184V90.944C495.47 89.664 496.078 89.024 497.294 89.024C497.902 89.024 498.35 89.192 498.638 89.528C498.942 89.848 499.094 90.32 499.094 90.944V99.272C499.094 99.896 498.95 100.376 498.662 100.712C498.374 101.048 497.926 101.216 497.318 101.216ZM503.94 101.216C503.572 101.216 503.26 101.144 503.004 101C502.748 100.856 502.556 100.648 502.428 100.376C502.316 100.088 502.26 99.72 502.26 99.272V90.752C502.26 90.192 502.404 89.768 502.692 89.48C502.98 89.176 503.38 89.024 503.892 89.024C504.42 89.024 504.82 89.176 505.092 89.48C505.38 89.768 505.524 90.192 505.524 90.752V97.208H504.876L510.18 90.176C510.372 89.92 510.62 89.664 510.924 89.408C511.228 89.152 511.66 89.024 512.22 89.024C512.588 89.024 512.892 89.096 513.132 89.24C513.388 89.368 513.572 89.576 513.684 89.864C513.812 90.136 513.876 90.496 513.876 90.944V99.488C513.876 100.032 513.732 100.456 513.444 100.76C513.172 101.064 512.78 101.216 512.268 101.216C511.724 101.216 511.308 101.064 511.02 100.76C510.748 100.456 510.612 100.032 510.612 99.488V93.008H511.284L505.956 100.04C505.764 100.312 505.516 100.576 505.212 100.832C504.924 101.088 504.5 101.216 503.94 101.216ZM518.297 101.168C517.849 101.168 517.489 101.048 517.217 100.808C516.945 100.552 516.801 100.232 516.785 99.848C516.785 99.464 516.945 99.072 517.265 98.672L520.985 94.112V95.744L517.529 91.52C517.193 91.104 517.033 90.704 517.049 90.32C517.065 89.936 517.209 89.624 517.481 89.384C517.753 89.144 518.113 89.024 518.561 89.024C518.993 89.024 519.353 89.096 519.641 89.24C519.929 89.384 520.201 89.624 520.457 89.96L523.025 93.248H521.753L524.321 89.96C524.593 89.624 524.873 89.384 525.161 89.24C525.449 89.096 525.801 89.024 526.217 89.024C526.665 89.024 527.025 89.152 527.297 89.408C527.569 89.648 527.705 89.96 527.705 90.344C527.721 90.728 527.561 91.12 527.225 91.52L523.769 95.744V94.112L527.513 98.672C527.849 99.056 528.009 99.44 527.993 99.824C527.977 100.208 527.825 100.528 527.537 100.784C527.265 101.04 526.905 101.168 526.457 101.168C526.025 101.168 525.665 101.096 525.377 100.952C525.105 100.792 524.833 100.552 524.561 100.232L521.753 96.656H522.977L520.169 100.232C519.913 100.536 519.641 100.768 519.353 100.928C519.081 101.088 518.729 101.168 518.297 101.168ZM539.141 101.216C538.629 101.216 538.237 101.072 537.965 100.784C537.693 100.48 537.557 100.056 537.557 99.512V91.016C537.557 90.584 537.613 90.224 537.725 89.936C537.837 89.632 538.021 89.408 538.277 89.264C538.533 89.104 538.845 89.024 539.213 89.024C539.565 89.024 539.861 89.08 540.101 89.192C540.341 89.304 540.549 89.456 540.725 89.648C540.901 89.84 541.061 90.064 541.205 90.32L544.397 95.648L547.565 90.344C547.693 90.104 547.837 89.888 547.997 89.696C548.173 89.504 548.381 89.344 548.621 89.216C548.877 89.088 549.181 89.024 549.533 89.024C550.109 89.024 550.533 89.2 550.805 89.552C551.077 89.888 551.213 90.376 551.213 91.016V99.512C551.213 100.056 551.077 100.48 550.805 100.784C550.533 101.072 550.133 101.216 549.605 101.216C549.109 101.216 548.717 101.072 548.429 100.784C548.157 100.48 548.021 100.056 548.021 99.512V93.416H548.621L545.597 98.456C545.485 98.632 545.341 98.8 545.165 98.96C544.989 99.12 544.733 99.2 544.397 99.2C544.061 99.2 543.805 99.12 543.629 98.96C543.453 98.8 543.301 98.632 543.173 98.456L540.125 93.416H540.725V99.512C540.725 100.056 540.589 100.48 540.317 100.784C540.045 101.072 539.653 101.216 539.141 101.216ZM560.481 101.264C559.089 101.264 557.889 101.016 556.881 100.52C555.889 100.008 555.121 99.296 554.577 98.384C554.049 97.456 553.785 96.368 553.785 95.12C553.785 93.904 554.041 92.84 554.553 91.928C555.065 91 555.777 90.28 556.689 89.768C557.617 89.24 558.665 88.976 559.833 88.976C560.681 88.976 561.449 89.12 562.137 89.408C562.825 89.68 563.417 90.08 563.913 90.608C564.409 91.12 564.785 91.752 565.041 92.504C565.297 93.24 565.425 94.064 565.425 94.976C565.425 95.28 565.329 95.512 565.137 95.672C564.945 95.816 564.665 95.888 564.297 95.888H556.761V94.016H562.809L562.425 94.352C562.425 93.696 562.329 93.152 562.137 92.72C561.945 92.272 561.665 91.936 561.297 91.712C560.945 91.488 560.505 91.376 559.977 91.376C559.385 91.376 558.881 91.512 558.465 91.784C558.049 92.056 557.729 92.448 557.505 92.96C557.281 93.472 557.169 94.088 557.169 94.808V95C557.169 96.216 557.449 97.112 558.009 97.688C558.585 98.264 559.433 98.552 560.553 98.552C560.937 98.552 561.377 98.504 561.873 98.408C562.369 98.312 562.833 98.16 563.265 97.952C563.633 97.776 563.961 97.72 564.249 97.784C564.537 97.832 564.761 97.96 564.921 98.168C565.081 98.376 565.169 98.616 565.185 98.888C565.217 99.16 565.161 99.432 565.017 99.704C564.873 99.96 564.633 100.176 564.297 100.352C563.753 100.656 563.137 100.88 562.449 101.024C561.777 101.184 561.121 101.264 560.481 101.264ZM573.644 101.264C572.364 101.264 571.244 101.016 570.284 100.52C569.34 100.008 568.612 99.288 568.1 98.36C567.588 97.432 567.332 96.336 567.332 95.072C567.332 94.128 567.476 93.28 567.764 92.528C568.052 91.776 568.468 91.136 569.012 90.608C569.572 90.08 570.244 89.68 571.028 89.408C571.812 89.12 572.684 88.976 573.644 88.976C574.14 88.976 574.668 89.04 575.228 89.168C575.788 89.28 576.34 89.48 576.884 89.768C577.204 89.912 577.42 90.12 577.532 90.392C577.66 90.648 577.708 90.92 577.676 91.208C577.644 91.48 577.54 91.728 577.364 91.952C577.204 92.16 576.996 92.304 576.74 92.384C576.484 92.448 576.196 92.4 575.876 92.24C575.572 92.064 575.252 91.936 574.916 91.856C574.596 91.776 574.292 91.736 574.004 91.736C573.524 91.736 573.1 91.816 572.732 91.976C572.364 92.12 572.052 92.336 571.796 92.624C571.556 92.896 571.364 93.24 571.22 93.656C571.092 94.072 571.028 94.552 571.028 95.096C571.028 96.152 571.284 96.984 571.796 97.592C572.324 98.184 573.06 98.48 574.004 98.48C574.292 98.48 574.596 98.448 574.916 98.384C575.236 98.304 575.556 98.176 575.876 98C576.196 97.84 576.484 97.8 576.74 97.88C576.996 97.96 577.196 98.112 577.34 98.336C577.5 98.544 577.588 98.792 577.604 99.08C577.636 99.352 577.588 99.624 577.46 99.896C577.348 100.152 577.14 100.352 576.836 100.496C576.292 100.768 575.748 100.96 575.204 101.072C574.66 101.2 574.14 101.264 573.644 101.264ZM584.064 101.216C583.488 101.216 583.04 101.056 582.72 100.736C582.416 100.416 582.264 99.96 582.264 99.368V92.048H579.672C578.664 92.048 578.16 91.576 578.16 90.632C578.16 90.184 578.288 89.84 578.544 89.6C578.816 89.344 579.192 89.216 579.672 89.216H588.456C589.48 89.216 589.992 89.688 589.992 90.632C589.992 91.096 589.856 91.448 589.584 91.688C589.328 91.928 588.952 92.048 588.456 92.048H585.888V99.368C585.888 99.96 585.736 100.416 585.432 100.736C585.128 101.056 584.672 101.216 584.064 101.216Z" fill="#161A29"/>
<path d="M623.675 267H117.498C110.497 267 105.663 274.008 108.15 280.552L148.05 385.552C149.525 389.434 153.245 392 157.398 392H577.475C581.44 392 585.031 389.657 586.628 386.027L632.828 281.027C635.736 274.418 630.895 267 623.675 267Z" fill="#7B51D2"/>
<path d="M311.153 338C309.772 338 308.745 337.683 308.073 337.048C307.438 336.376 307.121 335.405 307.121 334.136C307.121 333.315 307.326 332.549 307.737 331.84C308.148 331.131 308.708 330.403 309.417 329.656L319.945 318.568C321.513 316.888 322.633 315.395 323.305 314.088C324.014 312.781 324.369 311.475 324.369 310.168C324.369 308.525 323.828 307.275 322.745 306.416C321.7 305.557 320.169 305.128 318.153 305.128C317.07 305.128 315.95 305.296 314.793 305.632C313.673 305.931 312.497 306.435 311.265 307.144C310.444 307.592 309.678 307.76 308.969 307.648C308.297 307.499 307.718 307.181 307.233 306.696C306.748 306.173 306.43 305.557 306.281 304.848C306.132 304.139 306.206 303.429 306.505 302.72C306.804 302.011 307.364 301.413 308.185 300.928C309.828 299.92 311.62 299.173 313.561 298.688C315.502 298.165 317.425 297.904 319.329 297.904C322.278 297.904 324.761 298.352 326.777 299.248C328.793 300.107 330.324 301.376 331.369 303.056C332.414 304.736 332.937 306.789 332.937 309.216C332.937 310.784 332.694 312.315 332.209 313.808C331.724 315.301 330.958 316.813 329.913 318.344C328.905 319.837 327.561 321.443 325.881 323.16L316.081 333.128V330.888H331.257C332.452 330.888 333.348 331.187 333.945 331.784C334.58 332.381 334.897 333.259 334.897 334.416C334.897 335.573 334.58 336.469 333.945 337.104C333.348 337.701 332.452 338 331.257 338H311.153ZM353.859 338.616C351.955 338.616 349.995 338.373 347.979 337.888C345.963 337.403 344.115 336.675 342.435 335.704C341.577 335.219 340.979 334.621 340.643 333.912C340.345 333.203 340.251 332.475 340.363 331.728C340.513 330.981 340.811 330.347 341.259 329.824C341.745 329.264 342.342 328.909 343.051 328.76C343.798 328.611 344.619 328.779 345.515 329.264C346.822 329.936 348.147 330.459 349.491 330.832C350.873 331.205 352.273 331.392 353.691 331.392C355.11 331.392 356.323 331.149 357.331 330.664C358.339 330.179 359.105 329.507 359.627 328.648C360.15 327.789 360.411 326.781 360.411 325.624C360.411 323.832 359.833 322.395 358.675 321.312C357.555 320.229 356.025 319.688 354.083 319.688C353.113 319.688 352.123 319.856 351.115 320.192C350.145 320.491 349.137 321.032 348.091 321.816C347.718 322.115 347.233 322.395 346.635 322.656C346.038 322.917 345.403 323.048 344.731 323.048C343.574 323.048 342.715 322.787 342.155 322.264C341.595 321.704 341.315 320.901 341.315 319.856V302.272C341.315 301.04 341.633 300.107 342.267 299.472C342.939 298.837 343.873 298.52 345.067 298.52H363.043C364.275 298.52 365.209 298.837 365.843 299.472C366.478 300.069 366.795 300.947 366.795 302.104C366.795 303.224 366.478 304.101 365.843 304.736C365.209 305.333 364.275 305.632 363.043 305.632H349.659V316.328H347.531C348.465 315.171 349.697 314.275 351.227 313.64C352.758 313.005 354.438 312.688 356.267 312.688C358.769 312.688 360.953 313.229 362.819 314.312C364.686 315.357 366.142 316.832 367.187 318.736C368.233 320.64 368.755 322.843 368.755 325.344C368.755 327.957 368.158 330.272 366.963 332.288C365.769 334.267 364.051 335.816 361.811 336.936C359.571 338.056 356.921 338.616 353.859 338.616ZM387.381 338.616C382.603 338.616 378.944 336.843 376.405 333.296C373.904 329.712 372.653 324.653 372.653 318.12C372.653 313.752 373.213 310.075 374.333 307.088C375.491 304.064 377.152 301.787 379.317 300.256C381.52 298.688 384.208 297.904 387.381 297.904C392.197 297.904 395.856 299.64 398.357 303.112C400.859 306.547 402.109 311.549 402.109 318.12C402.109 322.488 401.531 326.203 400.373 329.264C399.253 332.288 397.611 334.603 395.445 336.208C393.28 337.813 390.592 338.616 387.381 338.616ZM387.381 331.56C389.547 331.56 391.152 330.496 392.197 328.368C393.243 326.203 393.765 322.787 393.765 318.12C393.765 313.453 393.243 310.093 392.197 308.04C391.152 305.987 389.547 304.96 387.381 304.96C385.216 304.96 383.611 305.987 382.565 308.04C381.52 310.093 380.997 313.453 380.997 318.12C380.997 322.787 381.52 326.203 382.565 328.368C383.611 330.496 385.216 331.56 387.381 331.56ZM420.96 336.264C419.989 336.264 419.242 336.003 418.72 335.48C418.197 334.92 417.936 334.155 417.936 333.184V324.84H409.76C408.826 324.84 408.098 324.597 407.576 324.112C407.053 323.589 406.792 322.861 406.792 321.928C406.792 320.995 407.053 320.285 407.576 319.8C408.098 319.277 408.826 319.016 409.76 319.016H417.936V311.008C417.936 310 418.197 309.235 418.72 308.712C419.242 308.189 420.008 307.928 421.016 307.928C421.986 307.928 422.714 308.189 423.2 308.712C423.722 309.235 423.984 310 423.984 311.008V319.016H432.16C433.13 319.016 433.858 319.277 434.344 319.8C434.866 320.285 435.128 320.995 435.128 321.928C435.128 322.861 434.866 323.589 434.344 324.112C433.858 324.597 433.13 324.84 432.16 324.84H423.984V333.184C423.984 334.155 423.722 334.92 423.2 335.48C422.714 336.003 421.968 336.264 420.96 336.264ZM318.091 367.216C317.499 367.216 317.043 367.056 316.723 366.736C316.419 366.416 316.267 365.96 316.267 365.368V356.872C316.267 356.28 316.419 355.824 316.723 355.504C317.043 355.184 317.499 355.024 318.091 355.024C318.667 355.024 319.107 355.184 319.411 355.504C319.731 355.824 319.891 356.28 319.891 356.872V359.608H321.307L323.995 355.864C324.251 355.496 324.547 355.256 324.883 355.144C325.235 355.032 325.571 355.024 325.891 355.12C326.211 355.216 326.475 355.392 326.683 355.648C326.891 355.888 327.003 356.176 327.019 356.512C327.051 356.848 326.931 357.208 326.659 357.592L324.067 361.24L323.347 360.064C323.779 360.112 324.171 360.24 324.523 360.448C324.875 360.656 325.195 360.928 325.483 361.264C325.771 361.584 326.043 361.976 326.299 362.44L327.571 364.768C327.795 365.168 327.867 365.544 327.787 365.896C327.723 366.232 327.555 366.512 327.283 366.736C327.027 366.96 326.723 367.096 326.371 367.144C326.019 367.208 325.675 367.168 325.339 367.024C325.003 366.88 324.723 366.6 324.499 366.184L323.035 363.592C322.875 363.272 322.707 363.024 322.531 362.848C322.355 362.672 322.155 362.552 321.931 362.488C321.723 362.424 321.475 362.392 321.187 362.392H319.891V365.368C319.891 365.96 319.731 366.416 319.411 366.736C319.107 367.056 318.667 367.216 318.091 367.216ZM339.837 367.216C339.245 367.216 338.789 367.056 338.469 366.736C338.165 366.416 338.013 365.96 338.013 365.368V358.024H334.941V359.344C334.941 360.368 334.869 361.296 334.725 362.128C334.581 362.96 334.365 363.696 334.077 364.336C333.789 364.976 333.421 365.52 332.973 365.968C332.525 366.4 331.989 366.744 331.365 367C330.949 367.176 330.573 367.224 330.237 367.144C329.901 367.064 329.621 366.912 329.397 366.688C329.189 366.464 329.053 366.2 328.989 365.896C328.941 365.576 328.981 365.264 329.109 364.96C329.253 364.64 329.509 364.368 329.877 364.144C330.229 363.952 330.517 363.704 330.741 363.4C330.965 363.096 331.141 362.736 331.269 362.32C331.397 361.904 331.485 361.448 331.533 360.952C331.597 360.44 331.629 359.864 331.629 359.224V357.256C331.629 356.6 331.797 356.096 332.133 355.744C332.485 355.392 332.989 355.216 333.645 355.216H339.621C340.277 355.216 340.773 355.392 341.109 355.744C341.461 356.096 341.637 356.6 341.637 357.256V365.368C341.637 365.96 341.477 366.416 341.157 366.736C340.853 367.056 340.413 367.216 339.837 367.216ZM346.494 367.216C346.126 367.216 345.814 367.144 345.558 367C345.302 366.856 345.11 366.648 344.982 366.376C344.87 366.088 344.814 365.72 344.814 365.272V356.752C344.814 356.192 344.958 355.768 345.246 355.48C345.534 355.176 345.934 355.024 346.446 355.024C346.974 355.024 347.374 355.176 347.646 355.48C347.934 355.768 348.078 356.192 348.078 356.752V363.208H347.43L352.734 356.176C352.926 355.92 353.174 355.664 353.478 355.408C353.782 355.152 354.214 355.024 354.774 355.024C355.142 355.024 355.446 355.096 355.686 355.24C355.942 355.368 356.126 355.576 356.238 355.864C356.366 356.136 356.43 356.496 356.43 356.944V365.488C356.43 366.032 356.286 366.456 355.998 366.76C355.726 367.064 355.334 367.216 354.822 367.216C354.278 367.216 353.862 367.064 353.574 366.76C353.302 366.456 353.166 366.032 353.166 365.488V359.008H353.838L348.51 366.04C348.318 366.312 348.07 366.576 347.766 366.832C347.478 367.088 347.054 367.216 346.494 367.216ZM365.723 367.264C364.331 367.264 363.131 367.016 362.123 366.52C361.131 366.008 360.363 365.296 359.819 364.384C359.291 363.456 359.027 362.368 359.027 361.12C359.027 359.904 359.283 358.84 359.795 357.928C360.307 357 361.019 356.28 361.931 355.768C362.859 355.24 363.907 354.976 365.075 354.976C365.923 354.976 366.691 355.12 367.379 355.408C368.067 355.68 368.659 356.08 369.155 356.608C369.651 357.12 370.027 357.752 370.283 358.504C370.539 359.24 370.667 360.064 370.667 360.976C370.667 361.28 370.571 361.512 370.379 361.672C370.187 361.816 369.907 361.888 369.539 361.888H362.003V360.016H368.051L367.667 360.352C367.667 359.696 367.571 359.152 367.379 358.72C367.187 358.272 366.907 357.936 366.539 357.712C366.187 357.488 365.747 357.376 365.219 357.376C364.627 357.376 364.123 357.512 363.707 357.784C363.291 358.056 362.971 358.448 362.747 358.96C362.523 359.472 362.411 360.088 362.411 360.808V361C362.411 362.216 362.691 363.112 363.251 363.688C363.827 364.264 364.675 364.552 365.795 364.552C366.179 364.552 366.619 364.504 367.115 364.408C367.611 364.312 368.075 364.16 368.507 363.952C368.875 363.776 369.203 363.72 369.491 363.784C369.779 363.832 370.003 363.96 370.163 364.168C370.323 364.376 370.411 364.616 370.427 364.888C370.459 365.16 370.403 365.432 370.259 365.704C370.115 365.96 369.875 366.176 369.539 366.352C368.995 366.656 368.379 366.88 367.691 367.024C367.019 367.184 366.363 367.264 365.723 367.264ZM374.974 367.216C374.382 367.216 373.926 367.056 373.606 366.736C373.302 366.416 373.15 365.96 373.15 365.368V356.848C373.15 356.24 373.302 355.784 373.606 355.48C373.926 355.176 374.382 355.024 374.974 355.024C375.55 355.024 375.99 355.176 376.294 355.48C376.614 355.784 376.774 356.24 376.774 356.848V359.584H381.262V356.848C381.262 356.24 381.414 355.784 381.718 355.48C382.022 355.176 382.47 355.024 383.062 355.024C383.638 355.024 384.086 355.176 384.406 355.48C384.726 355.784 384.886 356.24 384.886 356.848V365.368C384.886 365.96 384.726 366.416 384.406 366.736C384.086 367.056 383.638 367.216 383.062 367.216C382.47 367.216 382.022 367.056 381.718 366.736C381.414 366.416 381.262 365.96 381.262 365.368V362.392H376.774V365.368C376.774 365.96 376.622 366.416 376.318 366.736C376.014 367.056 375.566 367.216 374.974 367.216ZM392.329 367.216C391.753 367.216 391.305 367.056 390.985 366.736C390.681 366.416 390.529 365.96 390.529 365.368V358.048H387.937C386.929 358.048 386.425 357.576 386.425 356.632C386.425 356.184 386.553 355.84 386.809 355.6C387.081 355.344 387.457 355.216 387.937 355.216H396.721C397.745 355.216 398.257 355.688 398.257 356.632C398.257 357.096 398.121 357.448 397.849 357.688C397.593 357.928 397.217 358.048 396.721 358.048H394.153V365.368C394.153 365.96 394.001 366.416 393.697 366.736C393.393 367.056 392.937 367.216 392.329 367.216ZM405.298 367.264C404.034 367.264 402.93 367.016 401.986 366.52C401.058 366.024 400.338 365.312 399.826 364.384C399.314 363.456 399.058 362.36 399.058 361.096C399.058 360.152 399.202 359.304 399.49 358.552C399.778 357.8 400.194 357.16 400.738 356.632C401.298 356.088 401.962 355.68 402.73 355.408C403.498 355.12 404.354 354.976 405.298 354.976C406.562 354.976 407.658 355.224 408.586 355.72C409.53 356.216 410.258 356.92 410.77 357.832C411.298 358.744 411.562 359.832 411.562 361.096C411.562 362.056 411.41 362.912 411.106 363.664C410.818 364.416 410.402 365.064 409.858 365.608C409.314 366.152 408.65 366.568 407.866 366.856C407.098 367.128 406.242 367.264 405.298 367.264ZM405.298 364.552C405.826 364.552 406.282 364.424 406.666 364.168C407.05 363.912 407.354 363.536 407.578 363.04C407.802 362.528 407.914 361.88 407.914 361.096C407.914 359.928 407.674 359.072 407.194 358.528C406.714 357.968 406.082 357.688 405.298 357.688C404.786 357.688 404.33 357.808 403.93 358.048C403.546 358.288 403.242 358.664 403.018 359.176C402.81 359.672 402.706 360.312 402.706 361.096C402.706 362.264 402.946 363.136 403.426 363.712C403.906 364.272 404.53 364.552 405.298 364.552ZM415.871 367C415.311 367 414.879 366.848 414.575 366.544C414.271 366.24 414.119 365.8 414.119 365.224V356.992C414.119 356.416 414.271 355.976 414.575 355.672C414.879 355.368 415.311 355.216 415.871 355.216H420.815C421.887 355.216 422.743 355.344 423.383 355.6C424.039 355.84 424.511 356.192 424.799 356.656C425.087 357.104 425.231 357.656 425.231 358.312C425.231 359.032 424.983 359.648 424.487 360.16C423.991 360.656 423.335 360.968 422.519 361.096V360.736C423.591 360.816 424.383 361.12 424.895 361.648C425.407 362.176 425.663 362.856 425.663 363.688C425.663 364.696 425.263 365.504 424.463 366.112C423.679 366.704 422.527 367 421.007 367H415.871ZM417.455 364.84H420.647C421.223 364.84 421.655 364.728 421.943 364.504C422.247 364.264 422.399 363.912 422.399 363.448C422.399 362.984 422.247 362.64 421.943 362.416C421.655 362.176 421.223 362.056 420.647 362.056H417.455V364.84ZM417.455 359.92H420.431C420.911 359.92 421.287 359.808 421.559 359.584C421.831 359.344 421.967 359.024 421.967 358.624C421.967 358.208 421.831 357.896 421.559 357.688C421.287 357.48 420.911 357.376 420.431 357.376H417.455V359.92Z" fill="url(#paint1_linear_207_127)"/>
<defs>
<linearGradient id="paint0_linear_207_127" x1="374.5" y1="17" x2="374.5" y2="42.3666" gradientUnits="userSpaceOnUse">
<stop stop-color="#313860"/>
<stop offset="0.661985" stop-color="#151928"/>
</linearGradient>
<linearGradient id="paint1_linear_207_127" x1="370.581" y1="277" x2="370.581" y2="317.045" gradientUnits="userSpaceOnUse">
<stop stop-color="#313860"/>
<stop offset="0.661985" stop-color="#151928"/>
</linearGradient>
</defs>
</svg>
