<svg width="75" height="78" viewBox="0 0 75 78" fill="none" xmlns="http://www.w3.org/2000/svg">
<path d="M8 62V22.448L14.464 28.592H0.32V17.2H23.104V62H8Z" fill="white"/>
<path d="M53.496 63.024C49.912 63.024 46.584 62.4693 43.512 61.36C40.4827 60.208 37.8373 58.5867 35.576 56.496C33.3573 54.4053 31.6293 51.9307 30.392 49.072C29.1547 46.2133 28.536 43.056 28.536 39.6C28.536 36.144 29.1547 32.9867 30.392 30.128C31.6293 27.2693 33.3573 24.7947 35.576 22.704C37.8373 20.6133 40.4827 19.0133 43.512 17.904C46.584 16.752 49.912 16.176 53.496 16.176C57.8907 16.176 61.7733 16.944 65.144 18.48C68.5573 20.016 71.3733 22.2347 73.592 25.136L64.056 33.648C62.7333 31.984 61.2613 30.704 59.64 29.808C58.0613 28.8693 56.2693 28.4 54.264 28.4C52.6853 28.4 51.256 28.656 49.976 29.168C48.696 29.68 47.5867 30.4267 46.648 31.408C45.752 32.3893 45.048 33.584 44.536 34.992C44.024 36.3573 43.768 37.8933 43.768 39.6C43.768 41.3067 44.024 42.864 44.536 44.272C45.048 45.6373 45.752 46.8107 46.648 47.792C47.5867 48.7733 48.696 49.52 49.976 50.032C51.256 50.544 52.6853 50.8 54.264 50.8C56.2693 50.8 58.0613 50.352 59.64 49.456C61.2613 48.5173 62.7333 47.216 64.056 45.552L73.592 54.064C71.3733 56.9227 68.5573 59.1413 65.144 60.72C61.7733 62.256 57.8907 63.024 53.496 63.024Z" fill="#7B52D2"/>
</svg>
