<svg width="39" height="39" viewBox="0 0 39 39" fill="none" xmlns="http://www.w3.org/2000/svg">
<circle cx="19.5" cy="19.5" r="18" stroke="white" stroke-width="3"/>
<path fill-rule="evenodd" clip-rule="evenodd" d="M19.4211 9.75C18.8826 9.75 18.4461 10.1865 18.4461 10.725V24.6212L14.6644 20.8394C14.2836 20.4587 13.6663 20.4587 13.2855 20.8394C12.9047 21.2202 12.9047 21.8375 13.2855 22.2183L18.6342 27.5669C18.6506 27.5834 18.6675 27.5991 18.6848 27.6142C18.8636 27.8199 19.1272 27.95 19.4211 27.95C19.4732 27.95 19.5244 27.9459 19.5743 27.938C19.6242 27.9459 19.6754 27.95 19.7275 27.95C20.0215 27.95 20.2851 27.8199 20.4638 27.6142C20.4811 27.5991 20.498 27.5834 20.5145 27.5669L25.8632 22.2183C26.2439 21.8375 26.2439 21.2202 25.8632 20.8394C25.4824 20.4587 24.8651 20.4587 24.4843 20.8394L20.7025 24.6212V10.725C20.7025 10.1865 20.266 9.75 19.7275 9.75C19.6754 9.75 19.6242 9.75409 19.5743 9.76197C19.5244 9.75409 19.4732 9.75 19.4211 9.75Z" fill="white"/>
</svg>
